%TF.GenerationSoftware,KiCad,Pcbnew,(5.1.10)-1*%
%TF.CreationDate,2023-04-28T17:41:45-04:00*%
%TF.ProjectId,Arduino_shield,41726475-696e-46f5-9f73-6869656c642e,rev?*%
%TF.SameCoordinates,Original*%
%TF.FileFunction,Soldermask,Top*%
%TF.FilePolarity,Negative*%
%FSLAX46Y46*%
G04 Gerber Fmt 4.6, Leading zero omitted, Abs format (unit mm)*
G04 Created by KiCad (PCBNEW (5.1.10)-1) date 2023-04-28 17:41:45*
%MOMM*%
%LPD*%
G01*
G04 APERTURE LIST*
%ADD10C,1.879600*%
%ADD11C,1.981200*%
%ADD12C,2.133600*%
%ADD13C,1.727200*%
%ADD14O,1.727200X3.251200*%
%ADD15C,1.524000*%
%ADD16O,3.251200X1.727200*%
%ADD17R,1.700000X1.700000*%
%ADD18O,1.700000X1.700000*%
%ADD19R,0.800000X0.900000*%
%ADD20R,0.400000X1.500000*%
%ADD21R,1.000000X1.000000*%
%ADD22O,1.000000X1.000000*%
G04 APERTURE END LIST*
D10*
%TO.C,U1*%
X142151100Y-129133600D03*
X144691100Y-129133600D03*
X133007100Y-80873600D03*
X135547100Y-80873600D03*
X147231100Y-129133600D03*
X149771100Y-129133600D03*
X152311100Y-129133600D03*
X154851100Y-129133600D03*
X157391100Y-129133600D03*
X159931100Y-129133600D03*
X177711100Y-129133600D03*
X175171100Y-129133600D03*
X172631100Y-129133600D03*
X170091100Y-129133600D03*
X167551100Y-129133600D03*
X138087100Y-80873600D03*
X140627100Y-80873600D03*
X143167100Y-80873600D03*
X145707100Y-80873600D03*
X148247100Y-80873600D03*
X150787100Y-80873600D03*
X153327100Y-80873600D03*
X155867100Y-80873600D03*
X159931100Y-80873600D03*
X162471100Y-80873600D03*
X165011100Y-80873600D03*
X177711100Y-80873600D03*
X175171100Y-80873600D03*
X172631100Y-80873600D03*
X170091100Y-80873600D03*
X165011100Y-129133600D03*
X167551100Y-80873600D03*
%TD*%
D11*
%TO.C,DRIVER1*%
X161582100Y-98526600D03*
X161582100Y-101066600D03*
X161582100Y-103606600D03*
X161582100Y-106146600D03*
X161582100Y-108686600D03*
X161582100Y-111226600D03*
X161582100Y-113766600D03*
X161582100Y-116306600D03*
X161582100Y-118846600D03*
%TD*%
D12*
%TO.C,VALVE1*%
X157480000Y-101066600D03*
%TD*%
%TO.C,SOLENOID1*%
X157480000Y-98526600D03*
%TD*%
D13*
%TO.C,SENSOR1*%
X168821100Y-111226600D03*
X168821100Y-108686600D03*
X168821100Y-106146600D03*
%TD*%
D10*
%TO.C,LED1*%
X180340000Y-107950000D03*
X177800000Y-107950000D03*
%TD*%
%TO.C,LED2*%
X180340000Y-113030000D03*
X177800000Y-113030000D03*
%TD*%
D14*
%TO.C,ENCODER1*%
X145326100Y-91668600D03*
X147866100Y-91668600D03*
X150406100Y-91668600D03*
X152946100Y-91668600D03*
X155486100Y-91668600D03*
%TD*%
%TO.C,JP7*%
X159931100Y-84810600D03*
X162471100Y-84810600D03*
X165011100Y-84810600D03*
X167551100Y-84810600D03*
X170091100Y-84810600D03*
X172631100Y-84810600D03*
X175171100Y-84810600D03*
X177711100Y-84810600D03*
%TD*%
%TO.C,JP9*%
X149771100Y-124180600D03*
X152311100Y-124180600D03*
%TD*%
%TO.C,JP10*%
X157391100Y-124434600D03*
X159931100Y-124434600D03*
%TD*%
%TO.C,JP8*%
X138087100Y-84937600D03*
X140627100Y-84937600D03*
X143167100Y-84937600D03*
X145707100Y-84937600D03*
X148247100Y-84937600D03*
X150787100Y-84937600D03*
X153327100Y-84937600D03*
X155867100Y-84937600D03*
%TD*%
%TO.C,JP11*%
X176187100Y-125450600D03*
X173647100Y-125450600D03*
X171107100Y-125450600D03*
X168567100Y-125450600D03*
X166027100Y-125450600D03*
X163487100Y-125450600D03*
%TD*%
D13*
%TO.C,JP17*%
X140335000Y-111760000D03*
X140335000Y-114300000D03*
X137795000Y-111760000D03*
X137795000Y-114300000D03*
X135255000Y-111760000D03*
X135255000Y-114300000D03*
X132715000Y-111760000D03*
X132715000Y-114300000D03*
X130175000Y-111760000D03*
X130175000Y-114300000D03*
X127635000Y-111760000D03*
X127635000Y-114300000D03*
X125095000Y-111760000D03*
X125095000Y-114300000D03*
X122555000Y-111760000D03*
X122555000Y-114300000D03*
X120015000Y-111760000D03*
X120015000Y-114300000D03*
X117475000Y-111760000D03*
X117475000Y-114300000D03*
%TD*%
%TO.C,JP19*%
X175806100Y-90144600D03*
X175806100Y-92684600D03*
X173266100Y-90144600D03*
X173266100Y-92684600D03*
X170726100Y-90144600D03*
X170726100Y-92684600D03*
%TD*%
D15*
%TO.C,R1*%
X166047502Y-120307523D03*
X171086698Y-114591677D03*
%TD*%
%TO.C,R2*%
X168567611Y-122575864D03*
X173646589Y-116895336D03*
%TD*%
D10*
%TO.C,S1*%
X118783100Y-84302600D03*
X123863100Y-84302600D03*
X121323100Y-84302600D03*
%TD*%
D16*
%TO.C,S2*%
X137160000Y-129489200D03*
X137160000Y-124968000D03*
X130657600Y-129489200D03*
X130657600Y-124968000D03*
%TD*%
D17*
%TO.C,J2*%
X180340000Y-102870000D03*
D18*
X180340000Y-100330000D03*
X177800000Y-102870000D03*
X177800000Y-100330000D03*
X175260000Y-102870000D03*
X175260000Y-100330000D03*
X172720000Y-102870000D03*
X172720000Y-100330000D03*
%TD*%
D12*
%TO.C,power relay*%
X120650000Y-90170000D03*
X125730000Y-90170000D03*
X135890000Y-90170000D03*
X138430000Y-90170000D03*
%TD*%
%TO.C,power relay*%
X138430000Y-101600000D03*
X135890000Y-101600000D03*
X125730000Y-101600000D03*
X120650000Y-101600000D03*
%TD*%
%TO.C,power relay*%
X120650000Y-107315000D03*
X125730000Y-107315000D03*
X135890000Y-107315000D03*
X138430000Y-107315000D03*
%TD*%
D13*
%TO.C,JP16*%
X140335000Y-116840000D03*
X140335000Y-119380000D03*
X137795000Y-116840000D03*
X137795000Y-119380000D03*
X135255000Y-116840000D03*
X135255000Y-119380000D03*
X132715000Y-116840000D03*
X132715000Y-119380000D03*
X130175000Y-116840000D03*
X130175000Y-119380000D03*
X127635000Y-116840000D03*
X127635000Y-119380000D03*
X125095000Y-116840000D03*
X125095000Y-119380000D03*
X122555000Y-116840000D03*
X122555000Y-119380000D03*
X120015000Y-116840000D03*
X120015000Y-119380000D03*
X117475000Y-116840000D03*
X117475000Y-119380000D03*
%TD*%
D12*
%TO.C,power relay*%
X138430000Y-95885000D03*
X135890000Y-95885000D03*
X125730000Y-95885000D03*
X120650000Y-95885000D03*
%TD*%
%TO.C,D9*%
X116840000Y-95885000D03*
%TD*%
%TO.C,D8*%
X116840000Y-90170000D03*
%TD*%
%TO.C,D11*%
X116840000Y-101600000D03*
%TD*%
%TO.C,D12*%
X116840000Y-107315000D03*
%TD*%
D19*
%TO.C,diode*%
X149225000Y-107585000D03*
X150175000Y-109585000D03*
X148275000Y-109585000D03*
%TD*%
%TO.C,D2*%
X148275000Y-102600000D03*
X150175000Y-102600000D03*
X149225000Y-100600000D03*
%TD*%
D20*
%TO.C,Q1*%
X142210000Y-99060000D03*
X142860000Y-99060000D03*
X143510000Y-99060000D03*
X143510000Y-101720000D03*
X142860000Y-101720000D03*
X142210000Y-101720000D03*
%TD*%
%TO.C,NTN*%
X142225000Y-108010000D03*
X142875000Y-108010000D03*
X143525000Y-108010000D03*
X143525000Y-105350000D03*
X142875000Y-105350000D03*
X142225000Y-105350000D03*
%TD*%
D17*
%TO.C,vibra motor*%
X117475000Y-127000000D03*
D18*
X120015000Y-127000000D03*
X117475000Y-129540000D03*
X120015000Y-129540000D03*
%TD*%
D21*
%TO.C,J1*%
X179705000Y-119380000D03*
D22*
X179705000Y-120650000D03*
X179705000Y-121920000D03*
X179705000Y-123190000D03*
%TD*%
%TO.C,R3*%
G36*
G01*
X154120001Y-104337500D02*
X153219999Y-104337500D01*
G75*
G02*
X152970000Y-104087501I0J249999D01*
G01*
X152970000Y-103387499D01*
G75*
G02*
X153219999Y-103137500I249999J0D01*
G01*
X154120001Y-103137500D01*
G75*
G02*
X154370000Y-103387499I0J-249999D01*
G01*
X154370000Y-104087501D01*
G75*
G02*
X154120001Y-104337500I-249999J0D01*
G01*
G37*
G36*
G01*
X154120001Y-106337500D02*
X153219999Y-106337500D01*
G75*
G02*
X152970000Y-106087501I0J249999D01*
G01*
X152970000Y-105387499D01*
G75*
G02*
X153219999Y-105137500I249999J0D01*
G01*
X154120001Y-105137500D01*
G75*
G02*
X154370000Y-105387499I0J-249999D01*
G01*
X154370000Y-106087501D01*
G75*
G02*
X154120001Y-106337500I-249999J0D01*
G01*
G37*
%TD*%
%TO.C,10kOhm*%
G36*
G01*
X154120001Y-110782500D02*
X153219999Y-110782500D01*
G75*
G02*
X152970000Y-110532501I0J249999D01*
G01*
X152970000Y-109832499D01*
G75*
G02*
X153219999Y-109582500I249999J0D01*
G01*
X154120001Y-109582500D01*
G75*
G02*
X154370000Y-109832499I0J-249999D01*
G01*
X154370000Y-110532501D01*
G75*
G02*
X154120001Y-110782500I-249999J0D01*
G01*
G37*
G36*
G01*
X154120001Y-108782500D02*
X153219999Y-108782500D01*
G75*
G02*
X152970000Y-108532501I0J249999D01*
G01*
X152970000Y-107832499D01*
G75*
G02*
X153219999Y-107582500I249999J0D01*
G01*
X154120001Y-107582500D01*
G75*
G02*
X154370000Y-107832499I0J-249999D01*
G01*
X154370000Y-108532501D01*
G75*
G02*
X154120001Y-108782500I-249999J0D01*
G01*
G37*
%TD*%
%TO.C,R5*%
G36*
G01*
X154120001Y-99892500D02*
X153219999Y-99892500D01*
G75*
G02*
X152970000Y-99642501I0J249999D01*
G01*
X152970000Y-98942499D01*
G75*
G02*
X153219999Y-98692500I249999J0D01*
G01*
X154120001Y-98692500D01*
G75*
G02*
X154370000Y-98942499I0J-249999D01*
G01*
X154370000Y-99642501D01*
G75*
G02*
X154120001Y-99892500I-249999J0D01*
G01*
G37*
G36*
G01*
X154120001Y-101892500D02*
X153219999Y-101892500D01*
G75*
G02*
X152970000Y-101642501I0J249999D01*
G01*
X152970000Y-100942499D01*
G75*
G02*
X153219999Y-100692500I249999J0D01*
G01*
X154120001Y-100692500D01*
G75*
G02*
X154370000Y-100942499I0J-249999D01*
G01*
X154370000Y-101642501D01*
G75*
G02*
X154120001Y-101892500I-249999J0D01*
G01*
G37*
%TD*%
%TO.C,R6*%
G36*
G01*
X154120001Y-97485000D02*
X153219999Y-97485000D01*
G75*
G02*
X152970000Y-97235001I0J249999D01*
G01*
X152970000Y-96534999D01*
G75*
G02*
X153219999Y-96285000I249999J0D01*
G01*
X154120001Y-96285000D01*
G75*
G02*
X154370000Y-96534999I0J-249999D01*
G01*
X154370000Y-97235001D01*
G75*
G02*
X154120001Y-97485000I-249999J0D01*
G01*
G37*
G36*
G01*
X154120001Y-95485000D02*
X153219999Y-95485000D01*
G75*
G02*
X152970000Y-95235001I0J249999D01*
G01*
X152970000Y-94534999D01*
G75*
G02*
X153219999Y-94285000I249999J0D01*
G01*
X154120001Y-94285000D01*
G75*
G02*
X154370000Y-94534999I0J-249999D01*
G01*
X154370000Y-95235001D01*
G75*
G02*
X154120001Y-95485000I-249999J0D01*
G01*
G37*
%TD*%
%TO.C,22Ohm*%
G36*
G01*
X124910001Y-127164999D02*
X124009999Y-127164999D01*
G75*
G02*
X123760000Y-126915000I0J249999D01*
G01*
X123760000Y-126214998D01*
G75*
G02*
X124009999Y-125964999I249999J0D01*
G01*
X124910001Y-125964999D01*
G75*
G02*
X125160000Y-126214998I0J-249999D01*
G01*
X125160000Y-126915000D01*
G75*
G02*
X124910001Y-127164999I-249999J0D01*
G01*
G37*
G36*
G01*
X124910001Y-129164999D02*
X124009999Y-129164999D01*
G75*
G02*
X123760000Y-128915000I0J249999D01*
G01*
X123760000Y-128214998D01*
G75*
G02*
X124009999Y-127964999I249999J0D01*
G01*
X124910001Y-127964999D01*
G75*
G02*
X125160000Y-128214998I0J-249999D01*
G01*
X125160000Y-128915000D01*
G75*
G02*
X124910001Y-129164999I-249999J0D01*
G01*
G37*
%TD*%
%TO.C,R8*%
G36*
G01*
X128085001Y-129164999D02*
X127184999Y-129164999D01*
G75*
G02*
X126935000Y-128915000I0J249999D01*
G01*
X126935000Y-128214998D01*
G75*
G02*
X127184999Y-127964999I249999J0D01*
G01*
X128085001Y-127964999D01*
G75*
G02*
X128335000Y-128214998I0J-249999D01*
G01*
X128335000Y-128915000D01*
G75*
G02*
X128085001Y-129164999I-249999J0D01*
G01*
G37*
G36*
G01*
X128085001Y-127164999D02*
X127184999Y-127164999D01*
G75*
G02*
X126935000Y-126915000I0J249999D01*
G01*
X126935000Y-126214998D01*
G75*
G02*
X127184999Y-125964999I249999J0D01*
G01*
X128085001Y-125964999D01*
G75*
G02*
X128335000Y-126214998I0J-249999D01*
G01*
X128335000Y-126915000D01*
G75*
G02*
X128085001Y-127164999I-249999J0D01*
G01*
G37*
%TD*%
M02*
