%TF.GenerationSoftware,KiCad,Pcbnew,(5.1.10)-1*%
%TF.CreationDate,2023-04-24T18:22:13-04:00*%
%TF.ProjectId,Arduino_shield,41726475-696e-46f5-9f73-6869656c642e,rev?*%
%TF.SameCoordinates,Original*%
%TF.FileFunction,Legend,Top*%
%TF.FilePolarity,Positive*%
%FSLAX46Y46*%
G04 Gerber Fmt 4.6, Leading zero omitted, Abs format (unit mm)*
G04 Created by KiCad (PCBNEW (5.1.10)-1) date 2023-04-24 18:22:13*
%MOMM*%
%LPD*%
G01*
G04 APERTURE LIST*
%ADD10C,0.150000*%
%ADD11C,0.101600*%
%ADD12C,0.081280*%
%ADD13C,0.127000*%
%ADD14C,0.152400*%
%ADD15C,0.254000*%
%ADD16C,0.050800*%
%ADD17C,0.120000*%
%ADD18C,0.120650*%
G04 APERTURE END LIST*
D10*
X142113095Y-116292380D02*
X142732142Y-116292380D01*
X142398809Y-116673333D01*
X142541666Y-116673333D01*
X142636904Y-116720952D01*
X142684523Y-116768571D01*
X142732142Y-116863809D01*
X142732142Y-117101904D01*
X142684523Y-117197142D01*
X142636904Y-117244761D01*
X142541666Y-117292380D01*
X142255952Y-117292380D01*
X142160714Y-117244761D01*
X142113095Y-117197142D01*
X143017857Y-116292380D02*
X143351190Y-117292380D01*
X143684523Y-116292380D01*
X142684523Y-118832380D02*
X142208333Y-118832380D01*
X142160714Y-119308571D01*
X142208333Y-119260952D01*
X142303571Y-119213333D01*
X142541666Y-119213333D01*
X142636904Y-119260952D01*
X142684523Y-119308571D01*
X142732142Y-119403809D01*
X142732142Y-119641904D01*
X142684523Y-119737142D01*
X142636904Y-119784761D01*
X142541666Y-119832380D01*
X142303571Y-119832380D01*
X142208333Y-119784761D01*
X142160714Y-119737142D01*
X143017857Y-118832380D02*
X143351190Y-119832380D01*
X143684523Y-118832380D01*
D11*
X114653301Y-79952547D02*
X114653301Y-78746047D01*
X114653301Y-79320571D02*
X115342730Y-79320571D01*
X115342730Y-79952547D02*
X115342730Y-78746047D01*
X116434325Y-79952547D02*
X116434325Y-79320571D01*
X116376873Y-79205666D01*
X116261968Y-79148214D01*
X116032159Y-79148214D01*
X115917254Y-79205666D01*
X116434325Y-79895095D02*
X116319420Y-79952547D01*
X116032159Y-79952547D01*
X115917254Y-79895095D01*
X115859801Y-79780190D01*
X115859801Y-79665285D01*
X115917254Y-79550380D01*
X116032159Y-79492928D01*
X116319420Y-79492928D01*
X116434325Y-79435476D01*
X117008849Y-79952547D02*
X117008849Y-79148214D01*
X117008849Y-79263119D02*
X117066301Y-79205666D01*
X117181206Y-79148214D01*
X117353563Y-79148214D01*
X117468468Y-79205666D01*
X117525920Y-79320571D01*
X117525920Y-79952547D01*
X117525920Y-79320571D02*
X117583373Y-79205666D01*
X117698278Y-79148214D01*
X117870635Y-79148214D01*
X117985540Y-79205666D01*
X118042992Y-79320571D01*
X118042992Y-79952547D01*
X118617516Y-79952547D02*
X118617516Y-79148214D01*
X118617516Y-79263119D02*
X118674968Y-79205666D01*
X118789873Y-79148214D01*
X118962230Y-79148214D01*
X119077135Y-79205666D01*
X119134587Y-79320571D01*
X119134587Y-79952547D01*
X119134587Y-79320571D02*
X119192040Y-79205666D01*
X119306944Y-79148214D01*
X119479301Y-79148214D01*
X119594206Y-79205666D01*
X119651659Y-79320571D01*
X119651659Y-79952547D01*
X120743254Y-79952547D02*
X120743254Y-79320571D01*
X120685801Y-79205666D01*
X120570897Y-79148214D01*
X120341087Y-79148214D01*
X120226182Y-79205666D01*
X120743254Y-79895095D02*
X120628349Y-79952547D01*
X120341087Y-79952547D01*
X120226182Y-79895095D01*
X120168730Y-79780190D01*
X120168730Y-79665285D01*
X120226182Y-79550380D01*
X120341087Y-79492928D01*
X120628349Y-79492928D01*
X120743254Y-79435476D01*
X121834849Y-79952547D02*
X121834849Y-78746047D01*
X121834849Y-79895095D02*
X121719944Y-79952547D01*
X121490135Y-79952547D01*
X121375230Y-79895095D01*
X121317778Y-79837642D01*
X121260325Y-79722738D01*
X121260325Y-79378023D01*
X121317778Y-79263119D01*
X121375230Y-79205666D01*
X121490135Y-79148214D01*
X121719944Y-79148214D01*
X121834849Y-79205666D01*
X123271159Y-78688595D02*
X122237016Y-80239809D01*
X123903135Y-78746047D02*
X124132944Y-78746047D01*
X124247849Y-78803500D01*
X124362754Y-78918404D01*
X124420206Y-79148214D01*
X124420206Y-79550380D01*
X124362754Y-79780190D01*
X124247849Y-79895095D01*
X124132944Y-79952547D01*
X123903135Y-79952547D01*
X123788230Y-79895095D01*
X123673325Y-79780190D01*
X123615873Y-79550380D01*
X123615873Y-79148214D01*
X123673325Y-78918404D01*
X123788230Y-78803500D01*
X123903135Y-78746047D01*
X124937278Y-79952547D02*
X124937278Y-79148214D01*
X124937278Y-79263119D02*
X124994730Y-79205666D01*
X125109635Y-79148214D01*
X125281992Y-79148214D01*
X125396897Y-79205666D01*
X125454349Y-79320571D01*
X125454349Y-79952547D01*
X125454349Y-79320571D02*
X125511801Y-79205666D01*
X125626706Y-79148214D01*
X125799063Y-79148214D01*
X125913968Y-79205666D01*
X125971420Y-79320571D01*
X125971420Y-79952547D01*
X127407730Y-78688595D02*
X126373587Y-80239809D01*
X127752444Y-79895095D02*
X127924801Y-79952547D01*
X128212063Y-79952547D01*
X128326968Y-79895095D01*
X128384420Y-79837642D01*
X128441873Y-79722738D01*
X128441873Y-79607833D01*
X128384420Y-79492928D01*
X128326968Y-79435476D01*
X128212063Y-79378023D01*
X127982254Y-79320571D01*
X127867349Y-79263119D01*
X127809897Y-79205666D01*
X127752444Y-79090761D01*
X127752444Y-78975857D01*
X127809897Y-78860952D01*
X127867349Y-78803500D01*
X127982254Y-78746047D01*
X128269516Y-78746047D01*
X128441873Y-78803500D01*
X128958944Y-79952547D02*
X128958944Y-78746047D01*
X129476016Y-79952547D02*
X129476016Y-79320571D01*
X129418563Y-79205666D01*
X129303659Y-79148214D01*
X129131301Y-79148214D01*
X129016397Y-79205666D01*
X128958944Y-79263119D01*
X130567611Y-79148214D02*
X130567611Y-79952547D01*
X130050540Y-79148214D02*
X130050540Y-79780190D01*
X130107992Y-79895095D01*
X130222897Y-79952547D01*
X130395254Y-79952547D01*
X130510159Y-79895095D01*
X130567611Y-79837642D01*
X131314492Y-79952547D02*
X131199587Y-79895095D01*
X131142135Y-79780190D01*
X131142135Y-78746047D01*
X132291182Y-79952547D02*
X132291182Y-79320571D01*
X132233730Y-79205666D01*
X132118825Y-79148214D01*
X131889016Y-79148214D01*
X131774111Y-79205666D01*
X132291182Y-79895095D02*
X132176278Y-79952547D01*
X131889016Y-79952547D01*
X131774111Y-79895095D01*
X131716659Y-79780190D01*
X131716659Y-79665285D01*
X131774111Y-79550380D01*
X131889016Y-79492928D01*
X132176278Y-79492928D01*
X132291182Y-79435476D01*
X132865706Y-79148214D02*
X132865706Y-79952547D01*
X132865706Y-79263119D02*
X132923159Y-79205666D01*
X133038063Y-79148214D01*
X133210420Y-79148214D01*
X133325325Y-79205666D01*
X133382778Y-79320571D01*
X133382778Y-79952547D01*
X146403301Y-114864847D02*
X146403301Y-113658347D01*
X147092730Y-114864847D01*
X147092730Y-113658347D01*
X147667254Y-114864847D02*
X147667254Y-113658347D01*
X148356682Y-114864847D01*
X148356682Y-113658347D01*
X148758849Y-113658347D02*
X149448278Y-113658347D01*
X149103563Y-114864847D02*
X149103563Y-113658347D01*
X151344206Y-114864847D02*
X150769682Y-114864847D01*
X150769682Y-113658347D01*
X152263444Y-114864847D02*
X152263444Y-114232871D01*
X152205992Y-114117966D01*
X152091087Y-114060514D01*
X151861278Y-114060514D01*
X151746373Y-114117966D01*
X152263444Y-114807395D02*
X152148540Y-114864847D01*
X151861278Y-114864847D01*
X151746373Y-114807395D01*
X151688920Y-114692490D01*
X151688920Y-114577585D01*
X151746373Y-114462680D01*
X151861278Y-114405228D01*
X152148540Y-114405228D01*
X152263444Y-114347776D01*
X152837968Y-114864847D02*
X152837968Y-113658347D01*
X152837968Y-114117966D02*
X152952873Y-114060514D01*
X153182682Y-114060514D01*
X153297587Y-114117966D01*
X153355040Y-114175419D01*
X153412492Y-114290323D01*
X153412492Y-114635038D01*
X153355040Y-114749942D01*
X153297587Y-114807395D01*
X153182682Y-114864847D01*
X152952873Y-114864847D01*
X152837968Y-114807395D01*
X146403301Y-116776197D02*
X146403301Y-115569697D01*
X146862920Y-115569697D01*
X146977825Y-115627150D01*
X147035278Y-115684602D01*
X147092730Y-115799507D01*
X147092730Y-115971864D01*
X147035278Y-116086769D01*
X146977825Y-116144221D01*
X146862920Y-116201673D01*
X146403301Y-116201673D01*
X148126873Y-115971864D02*
X148126873Y-116776197D01*
X147609801Y-115971864D02*
X147609801Y-116603840D01*
X147667254Y-116718745D01*
X147782159Y-116776197D01*
X147954516Y-116776197D01*
X148069420Y-116718745D01*
X148126873Y-116661292D01*
X148701397Y-116776197D02*
X148701397Y-115971864D01*
X148701397Y-116201673D02*
X148758849Y-116086769D01*
X148816301Y-116029316D01*
X148931206Y-115971864D01*
X149046111Y-115971864D01*
X149965349Y-116776197D02*
X149965349Y-115569697D01*
X149965349Y-116718745D02*
X149850444Y-116776197D01*
X149620635Y-116776197D01*
X149505730Y-116718745D01*
X149448278Y-116661292D01*
X149390825Y-116546388D01*
X149390825Y-116201673D01*
X149448278Y-116086769D01*
X149505730Y-116029316D01*
X149620635Y-115971864D01*
X149850444Y-115971864D01*
X149965349Y-116029316D01*
X151056944Y-115971864D02*
X151056944Y-116776197D01*
X150539873Y-115971864D02*
X150539873Y-116603840D01*
X150597325Y-116718745D01*
X150712230Y-116776197D01*
X150884587Y-116776197D01*
X150999492Y-116718745D01*
X151056944Y-116661292D01*
X152091087Y-116718745D02*
X151976182Y-116776197D01*
X151746373Y-116776197D01*
X151631468Y-116718745D01*
X151574016Y-116603840D01*
X151574016Y-116144221D01*
X151631468Y-116029316D01*
X151746373Y-115971864D01*
X151976182Y-115971864D01*
X152091087Y-116029316D01*
X152148540Y-116144221D01*
X152148540Y-116259126D01*
X151574016Y-116374030D01*
X146230944Y-117481047D02*
X146633111Y-118687547D01*
X147035278Y-117481047D01*
X147954516Y-117481047D02*
X147724706Y-117481047D01*
X147609801Y-117538500D01*
X147552349Y-117595952D01*
X147437444Y-117768309D01*
X147379992Y-117998119D01*
X147379992Y-118457738D01*
X147437444Y-118572642D01*
X147494897Y-118630095D01*
X147609801Y-118687547D01*
X147839611Y-118687547D01*
X147954516Y-118630095D01*
X148011968Y-118572642D01*
X148069420Y-118457738D01*
X148069420Y-118170476D01*
X148011968Y-118055571D01*
X147954516Y-117998119D01*
X147839611Y-117940666D01*
X147609801Y-117940666D01*
X147494897Y-117998119D01*
X147437444Y-118055571D01*
X147379992Y-118170476D01*
X148299230Y-118802452D02*
X149218468Y-118802452D01*
X149505730Y-117883214D02*
X149505730Y-119089714D01*
X149505730Y-117940666D02*
X149620635Y-117883214D01*
X149850444Y-117883214D01*
X149965349Y-117940666D01*
X150022801Y-117998119D01*
X150080254Y-118113023D01*
X150080254Y-118457738D01*
X150022801Y-118572642D01*
X149965349Y-118630095D01*
X149850444Y-118687547D01*
X149620635Y-118687547D01*
X149505730Y-118630095D01*
X150597325Y-118687547D02*
X150597325Y-117883214D01*
X150597325Y-117481047D02*
X150539873Y-117538500D01*
X150597325Y-117595952D01*
X150654778Y-117538500D01*
X150597325Y-117481047D01*
X150597325Y-117595952D01*
X151114397Y-118630095D02*
X151229301Y-118687547D01*
X151459111Y-118687547D01*
X151574016Y-118630095D01*
X151631468Y-118515190D01*
X151631468Y-118457738D01*
X151574016Y-118342833D01*
X151459111Y-118285380D01*
X151286754Y-118285380D01*
X151171849Y-118227928D01*
X151114397Y-118113023D01*
X151114397Y-118055571D01*
X151171849Y-117940666D01*
X151286754Y-117883214D01*
X151459111Y-117883214D01*
X151574016Y-117940666D01*
X151976182Y-117883214D02*
X152435801Y-117883214D01*
X152148540Y-117481047D02*
X152148540Y-118515190D01*
X152205992Y-118630095D01*
X152320897Y-118687547D01*
X152435801Y-118687547D01*
X153010325Y-118687547D02*
X152895420Y-118630095D01*
X152837968Y-118572642D01*
X152780516Y-118457738D01*
X152780516Y-118113023D01*
X152837968Y-117998119D01*
X152895420Y-117940666D01*
X153010325Y-117883214D01*
X153182682Y-117883214D01*
X153297587Y-117940666D01*
X153355040Y-117998119D01*
X153412492Y-118113023D01*
X153412492Y-118457738D01*
X153355040Y-118572642D01*
X153297587Y-118630095D01*
X153182682Y-118687547D01*
X153010325Y-118687547D01*
X153929563Y-117883214D02*
X153929563Y-118687547D01*
X153929563Y-117998119D02*
X153987016Y-117940666D01*
X154101920Y-117883214D01*
X154274278Y-117883214D01*
X154389182Y-117940666D01*
X154446635Y-118055571D01*
X154446635Y-118687547D01*
D12*
X117217589Y-80878438D02*
X117401436Y-80878438D01*
X117493360Y-80924400D01*
X117585284Y-81016323D01*
X117631246Y-81200171D01*
X117631246Y-81521904D01*
X117585284Y-81705752D01*
X117493360Y-81797676D01*
X117401436Y-81843638D01*
X117217589Y-81843638D01*
X117125665Y-81797676D01*
X117033741Y-81705752D01*
X116987779Y-81521904D01*
X116987779Y-81200171D01*
X117033741Y-81016323D01*
X117125665Y-80924400D01*
X117217589Y-80878438D01*
X118044903Y-81843638D02*
X118044903Y-80878438D01*
X118596446Y-81843638D01*
X118596446Y-80878438D01*
X128064598Y-80878438D02*
X128248446Y-80878438D01*
X128340370Y-80924400D01*
X128432293Y-81016323D01*
X128478255Y-81200171D01*
X128478255Y-81521904D01*
X128432293Y-81705752D01*
X128340370Y-81797676D01*
X128248446Y-81843638D01*
X128064598Y-81843638D01*
X127972674Y-81797676D01*
X127880751Y-81705752D01*
X127834789Y-81521904D01*
X127834789Y-81200171D01*
X127880751Y-81016323D01*
X127972674Y-80924400D01*
X128064598Y-80878438D01*
X129213646Y-81338057D02*
X128891912Y-81338057D01*
X128891912Y-81843638D02*
X128891912Y-80878438D01*
X129351532Y-80878438D01*
X130040960Y-81338057D02*
X129719227Y-81338057D01*
X129719227Y-81843638D02*
X129719227Y-80878438D01*
X130178846Y-80878438D01*
X142393222Y-113969800D02*
X142301298Y-113923838D01*
X142163412Y-113923838D01*
X142025527Y-113969800D01*
X141933603Y-114061723D01*
X141887641Y-114153647D01*
X141841679Y-114337495D01*
X141841679Y-114475380D01*
X141887641Y-114659228D01*
X141933603Y-114751152D01*
X142025527Y-114843076D01*
X142163412Y-114889038D01*
X142255336Y-114889038D01*
X142393222Y-114843076D01*
X142439184Y-114797114D01*
X142439184Y-114475380D01*
X142255336Y-114475380D01*
X142852841Y-114889038D02*
X142852841Y-113923838D01*
X143404384Y-114889038D01*
X143404384Y-113923838D01*
X143864003Y-114889038D02*
X143864003Y-113923838D01*
X144093812Y-113923838D01*
X144231698Y-113969800D01*
X144323622Y-114061723D01*
X144369584Y-114153647D01*
X144415546Y-114337495D01*
X144415546Y-114475380D01*
X144369584Y-114659228D01*
X144323622Y-114751152D01*
X144231698Y-114843076D01*
X144093812Y-114889038D01*
X143864003Y-114889038D01*
D11*
X141900849Y-111880952D02*
X141958301Y-111823500D01*
X142073206Y-111766047D01*
X142360468Y-111766047D01*
X142475373Y-111823500D01*
X142532825Y-111880952D01*
X142590278Y-111995857D01*
X142590278Y-112110761D01*
X142532825Y-112283119D01*
X141843397Y-112972547D01*
X142590278Y-112972547D01*
X143624420Y-112168214D02*
X143624420Y-112972547D01*
X143337159Y-111708595D02*
X143049897Y-112570380D01*
X143796778Y-112570380D01*
X144084040Y-111766047D02*
X144486206Y-112972547D01*
X144888373Y-111766047D01*
D13*
%TO.C,DRIVER1*%
X162852100Y-120116600D02*
X160312100Y-120116600D01*
X162852100Y-97256600D02*
X162852100Y-120116600D01*
X160312100Y-97256600D02*
X162852100Y-97256600D01*
X160312100Y-120116600D02*
X160312100Y-97256600D01*
D14*
%TO.C,VALVE1*%
X156629100Y-102336600D02*
X155359100Y-102336600D01*
X154724100Y-101701600D02*
X155359100Y-102336600D01*
X155359100Y-99796600D02*
X154724100Y-100431600D01*
X154724100Y-100431600D02*
X154724100Y-101701600D01*
X157264100Y-101701600D02*
X156629100Y-102336600D01*
X157264100Y-100431600D02*
X157264100Y-101701600D01*
X156629100Y-99796600D02*
X157264100Y-100431600D01*
X155359100Y-99796600D02*
X156629100Y-99796600D01*
%TO.C,SOLENOID1*%
X156629100Y-99796600D02*
X155359100Y-99796600D01*
X154724100Y-99161600D02*
X155359100Y-99796600D01*
X155359100Y-97256600D02*
X154724100Y-97891600D01*
X154724100Y-97891600D02*
X154724100Y-99161600D01*
X157264100Y-99161600D02*
X156629100Y-99796600D01*
X157264100Y-97891600D02*
X157264100Y-99161600D01*
X156629100Y-97256600D02*
X157264100Y-97891600D01*
X155359100Y-97256600D02*
X156629100Y-97256600D01*
%TO.C,SENSOR1*%
X167551100Y-110591600D02*
X168186100Y-109956600D01*
X167551100Y-111861600D02*
X167551100Y-110591600D01*
X168186100Y-112496600D02*
X167551100Y-111861600D01*
X169456100Y-112496600D02*
X168186100Y-112496600D01*
X170091100Y-111861600D02*
X169456100Y-112496600D01*
X170091100Y-110591600D02*
X170091100Y-111861600D01*
X169456100Y-109956600D02*
X170091100Y-110591600D01*
X167551100Y-106781600D02*
X167551100Y-105511600D01*
X168186100Y-104876600D02*
X167551100Y-105511600D01*
X170091100Y-105511600D02*
X169456100Y-104876600D01*
X169456100Y-104876600D02*
X168186100Y-104876600D01*
X167551100Y-108051600D02*
X168186100Y-107416600D01*
X167551100Y-109321600D02*
X167551100Y-108051600D01*
X168186100Y-109956600D02*
X167551100Y-109321600D01*
X169456100Y-109956600D02*
X168186100Y-109956600D01*
X170091100Y-109321600D02*
X169456100Y-109956600D01*
X170091100Y-108051600D02*
X170091100Y-109321600D01*
X169456100Y-107416600D02*
X170091100Y-108051600D01*
X168186100Y-107416600D02*
X167551100Y-106781600D01*
X169456100Y-107416600D02*
X168186100Y-107416600D01*
X170091100Y-106781600D02*
X169456100Y-107416600D01*
X170091100Y-105511600D02*
X170091100Y-106781600D01*
D13*
%TO.C,LED1*%
X176834800Y-106629200D02*
X176834800Y-105841800D01*
X176479200Y-106222800D02*
X177215800Y-106222800D01*
D15*
X179070000Y-109982000D02*
G75*
G02*
X177305700Y-108958200I-56J2032000D01*
G01*
X180621200Y-109262600D02*
G75*
G02*
X179070000Y-109982000I-1551163J1312600D01*
G01*
X179070000Y-105918000D02*
G75*
G03*
X177277100Y-106993800I60J-2032000D01*
G01*
X180631000Y-106649100D02*
G75*
G03*
X179070000Y-105918000I-1560988J-1300900D01*
G01*
D14*
X179070000Y-109474000D02*
G75*
G02*
X177867000Y-108885600I8J1524000D01*
G01*
X180273000Y-108885600D02*
G75*
G02*
X179070000Y-109474000I-1203008J935600D01*
G01*
X179070000Y-106426000D02*
G75*
G03*
X177850800Y-107035600I0J-1524000D01*
G01*
X180310100Y-107064199D02*
G75*
G03*
X179070000Y-106426000I-1240134J-885801D01*
G01*
D13*
%TO.C,LED2*%
X176834800Y-111709200D02*
X176834800Y-110921800D01*
X176479200Y-111302800D02*
X177215800Y-111302800D01*
D15*
X179070000Y-115062000D02*
G75*
G02*
X177305700Y-114038200I-56J2032000D01*
G01*
X180621200Y-114342600D02*
G75*
G02*
X179070000Y-115062000I-1551163J1312600D01*
G01*
X179070000Y-110998000D02*
G75*
G03*
X177277100Y-112073800I60J-2032000D01*
G01*
X180631000Y-111729100D02*
G75*
G03*
X179070000Y-110998000I-1560988J-1300900D01*
G01*
D14*
X179070000Y-114554000D02*
G75*
G02*
X177867000Y-113965600I8J1524000D01*
G01*
X180273000Y-113965600D02*
G75*
G02*
X179070000Y-114554000I-1203008J935600D01*
G01*
X179070000Y-111506000D02*
G75*
G03*
X177850800Y-112115600I0J-1524000D01*
G01*
X180310100Y-112144199D02*
G75*
G03*
X179070000Y-111506000I-1240134J-885801D01*
G01*
%TO.C,ENCODER1*%
X144691100Y-90398600D02*
X145961100Y-90398600D01*
X146596100Y-91033600D02*
X145961100Y-90398600D01*
X145961100Y-92938600D02*
X146596100Y-92303600D01*
X144056100Y-91033600D02*
X144691100Y-90398600D01*
X144056100Y-92303600D02*
X144056100Y-91033600D01*
X144691100Y-92938600D02*
X144056100Y-92303600D01*
X145961100Y-92938600D02*
X144691100Y-92938600D01*
X154851100Y-90398600D02*
X156121100Y-90398600D01*
X156756100Y-91033600D02*
X156121100Y-90398600D01*
X156121100Y-92938600D02*
X156756100Y-92303600D01*
X156756100Y-92303600D02*
X156756100Y-91033600D01*
X153581100Y-90398600D02*
X154216100Y-91033600D01*
X152311100Y-90398600D02*
X153581100Y-90398600D01*
X151676100Y-91033600D02*
X152311100Y-90398600D01*
X151676100Y-92303600D02*
X151676100Y-91033600D01*
X152311100Y-92938600D02*
X151676100Y-92303600D01*
X153581100Y-92938600D02*
X152311100Y-92938600D01*
X154216100Y-92303600D02*
X153581100Y-92938600D01*
X154216100Y-91033600D02*
X154851100Y-90398600D01*
X154216100Y-92303600D02*
X154216100Y-91033600D01*
X154851100Y-92938600D02*
X154216100Y-92303600D01*
X156121100Y-92938600D02*
X154851100Y-92938600D01*
X147231100Y-90398600D02*
X148501100Y-90398600D01*
X149136100Y-91033600D02*
X148501100Y-90398600D01*
X148501100Y-92938600D02*
X149136100Y-92303600D01*
X151041100Y-90398600D02*
X151676100Y-91033600D01*
X149771100Y-90398600D02*
X151041100Y-90398600D01*
X149136100Y-91033600D02*
X149771100Y-90398600D01*
X149136100Y-92303600D02*
X149136100Y-91033600D01*
X149771100Y-92938600D02*
X149136100Y-92303600D01*
X151041100Y-92938600D02*
X149771100Y-92938600D01*
X151676100Y-92303600D02*
X151041100Y-92938600D01*
X146596100Y-91033600D02*
X147231100Y-90398600D01*
X146596100Y-92303600D02*
X146596100Y-91033600D01*
X147231100Y-92938600D02*
X146596100Y-92303600D01*
X148501100Y-92938600D02*
X147231100Y-92938600D01*
%TO.C,JP7*%
X159296100Y-83540600D02*
X160566100Y-83540600D01*
X161201100Y-84175600D02*
X160566100Y-83540600D01*
X160566100Y-86080600D02*
X161201100Y-85445600D01*
X158661100Y-84175600D02*
X159296100Y-83540600D01*
X158661100Y-85445600D02*
X158661100Y-84175600D01*
X159296100Y-86080600D02*
X158661100Y-85445600D01*
X160566100Y-86080600D02*
X159296100Y-86080600D01*
X177076100Y-83540600D02*
X178346100Y-83540600D01*
X178981100Y-84175600D02*
X178346100Y-83540600D01*
X178346100Y-86080600D02*
X178981100Y-85445600D01*
X178981100Y-85445600D02*
X178981100Y-84175600D01*
X175806100Y-83540600D02*
X176441100Y-84175600D01*
X174536100Y-83540600D02*
X175806100Y-83540600D01*
X173901100Y-84175600D02*
X174536100Y-83540600D01*
X173901100Y-85445600D02*
X173901100Y-84175600D01*
X174536100Y-86080600D02*
X173901100Y-85445600D01*
X175806100Y-86080600D02*
X174536100Y-86080600D01*
X176441100Y-85445600D02*
X175806100Y-86080600D01*
X176441100Y-84175600D02*
X177076100Y-83540600D01*
X176441100Y-85445600D02*
X176441100Y-84175600D01*
X177076100Y-86080600D02*
X176441100Y-85445600D01*
X178346100Y-86080600D02*
X177076100Y-86080600D01*
X169456100Y-83540600D02*
X170726100Y-83540600D01*
X171361100Y-84175600D02*
X170726100Y-83540600D01*
X170726100Y-86080600D02*
X171361100Y-85445600D01*
X173266100Y-83540600D02*
X173901100Y-84175600D01*
X171996100Y-83540600D02*
X173266100Y-83540600D01*
X171361100Y-84175600D02*
X171996100Y-83540600D01*
X171361100Y-85445600D02*
X171361100Y-84175600D01*
X171996100Y-86080600D02*
X171361100Y-85445600D01*
X173266100Y-86080600D02*
X171996100Y-86080600D01*
X173901100Y-85445600D02*
X173266100Y-86080600D01*
X168186100Y-83540600D02*
X168821100Y-84175600D01*
X166916100Y-83540600D02*
X168186100Y-83540600D01*
X166281100Y-84175600D02*
X166916100Y-83540600D01*
X166281100Y-85445600D02*
X166281100Y-84175600D01*
X166916100Y-86080600D02*
X166281100Y-85445600D01*
X168186100Y-86080600D02*
X166916100Y-86080600D01*
X168821100Y-85445600D02*
X168186100Y-86080600D01*
X168821100Y-84175600D02*
X169456100Y-83540600D01*
X168821100Y-85445600D02*
X168821100Y-84175600D01*
X169456100Y-86080600D02*
X168821100Y-85445600D01*
X170726100Y-86080600D02*
X169456100Y-86080600D01*
X161836100Y-83540600D02*
X163106100Y-83540600D01*
X163741100Y-84175600D02*
X163106100Y-83540600D01*
X163106100Y-86080600D02*
X163741100Y-85445600D01*
X165646100Y-83540600D02*
X166281100Y-84175600D01*
X164376100Y-83540600D02*
X165646100Y-83540600D01*
X163741100Y-84175600D02*
X164376100Y-83540600D01*
X163741100Y-85445600D02*
X163741100Y-84175600D01*
X164376100Y-86080600D02*
X163741100Y-85445600D01*
X165646100Y-86080600D02*
X164376100Y-86080600D01*
X166281100Y-85445600D02*
X165646100Y-86080600D01*
X161201100Y-84175600D02*
X161836100Y-83540600D01*
X161201100Y-85445600D02*
X161201100Y-84175600D01*
X161836100Y-86080600D02*
X161201100Y-85445600D01*
X163106100Y-86080600D02*
X161836100Y-86080600D01*
%TO.C,JP9*%
X150406100Y-122910600D02*
X151041100Y-123545600D01*
X149136100Y-122910600D02*
X150406100Y-122910600D01*
X148501100Y-123545600D02*
X149136100Y-122910600D01*
X148501100Y-124815600D02*
X148501100Y-123545600D01*
X149136100Y-125450600D02*
X148501100Y-124815600D01*
X150406100Y-125450600D02*
X149136100Y-125450600D01*
X151041100Y-124815600D02*
X150406100Y-125450600D01*
X151676100Y-122910600D02*
X152946100Y-122910600D01*
X153581100Y-123545600D02*
X152946100Y-122910600D01*
X152946100Y-125450600D02*
X153581100Y-124815600D01*
X153581100Y-124815600D02*
X153581100Y-123545600D01*
X151041100Y-123545600D02*
X151676100Y-122910600D01*
X151041100Y-124815600D02*
X151041100Y-123545600D01*
X151676100Y-125450600D02*
X151041100Y-124815600D01*
X152946100Y-125450600D02*
X151676100Y-125450600D01*
%TO.C,JP10*%
X158026100Y-123164600D02*
X158661100Y-123799600D01*
X156756100Y-123164600D02*
X158026100Y-123164600D01*
X156121100Y-123799600D02*
X156756100Y-123164600D01*
X156121100Y-125069600D02*
X156121100Y-123799600D01*
X156756100Y-125704600D02*
X156121100Y-125069600D01*
X158026100Y-125704600D02*
X156756100Y-125704600D01*
X158661100Y-125069600D02*
X158026100Y-125704600D01*
X159296100Y-123164600D02*
X160566100Y-123164600D01*
X161201100Y-123799600D02*
X160566100Y-123164600D01*
X160566100Y-125704600D02*
X161201100Y-125069600D01*
X161201100Y-125069600D02*
X161201100Y-123799600D01*
X158661100Y-123799600D02*
X159296100Y-123164600D01*
X158661100Y-125069600D02*
X158661100Y-123799600D01*
X159296100Y-125704600D02*
X158661100Y-125069600D01*
X160566100Y-125704600D02*
X159296100Y-125704600D01*
%TO.C,JP8*%
X137452100Y-83667600D02*
X138722100Y-83667600D01*
X139357100Y-84302600D02*
X138722100Y-83667600D01*
X138722100Y-86207600D02*
X139357100Y-85572600D01*
X136817100Y-84302600D02*
X137452100Y-83667600D01*
X136817100Y-85572600D02*
X136817100Y-84302600D01*
X137452100Y-86207600D02*
X136817100Y-85572600D01*
X138722100Y-86207600D02*
X137452100Y-86207600D01*
X155232100Y-83667600D02*
X156502100Y-83667600D01*
X157137100Y-84302600D02*
X156502100Y-83667600D01*
X156502100Y-86207600D02*
X157137100Y-85572600D01*
X157137100Y-85572600D02*
X157137100Y-84302600D01*
X153962100Y-83667600D02*
X154597100Y-84302600D01*
X152692100Y-83667600D02*
X153962100Y-83667600D01*
X152057100Y-84302600D02*
X152692100Y-83667600D01*
X152057100Y-85572600D02*
X152057100Y-84302600D01*
X152692100Y-86207600D02*
X152057100Y-85572600D01*
X153962100Y-86207600D02*
X152692100Y-86207600D01*
X154597100Y-85572600D02*
X153962100Y-86207600D01*
X154597100Y-84302600D02*
X155232100Y-83667600D01*
X154597100Y-85572600D02*
X154597100Y-84302600D01*
X155232100Y-86207600D02*
X154597100Y-85572600D01*
X156502100Y-86207600D02*
X155232100Y-86207600D01*
X147612100Y-83667600D02*
X148882100Y-83667600D01*
X149517100Y-84302600D02*
X148882100Y-83667600D01*
X148882100Y-86207600D02*
X149517100Y-85572600D01*
X151422100Y-83667600D02*
X152057100Y-84302600D01*
X150152100Y-83667600D02*
X151422100Y-83667600D01*
X149517100Y-84302600D02*
X150152100Y-83667600D01*
X149517100Y-85572600D02*
X149517100Y-84302600D01*
X150152100Y-86207600D02*
X149517100Y-85572600D01*
X151422100Y-86207600D02*
X150152100Y-86207600D01*
X152057100Y-85572600D02*
X151422100Y-86207600D01*
X146342100Y-83667600D02*
X146977100Y-84302600D01*
X145072100Y-83667600D02*
X146342100Y-83667600D01*
X144437100Y-84302600D02*
X145072100Y-83667600D01*
X144437100Y-85572600D02*
X144437100Y-84302600D01*
X145072100Y-86207600D02*
X144437100Y-85572600D01*
X146342100Y-86207600D02*
X145072100Y-86207600D01*
X146977100Y-85572600D02*
X146342100Y-86207600D01*
X146977100Y-84302600D02*
X147612100Y-83667600D01*
X146977100Y-85572600D02*
X146977100Y-84302600D01*
X147612100Y-86207600D02*
X146977100Y-85572600D01*
X148882100Y-86207600D02*
X147612100Y-86207600D01*
X139992100Y-83667600D02*
X141262100Y-83667600D01*
X141897100Y-84302600D02*
X141262100Y-83667600D01*
X141262100Y-86207600D02*
X141897100Y-85572600D01*
X143802100Y-83667600D02*
X144437100Y-84302600D01*
X142532100Y-83667600D02*
X143802100Y-83667600D01*
X141897100Y-84302600D02*
X142532100Y-83667600D01*
X141897100Y-85572600D02*
X141897100Y-84302600D01*
X142532100Y-86207600D02*
X141897100Y-85572600D01*
X143802100Y-86207600D02*
X142532100Y-86207600D01*
X144437100Y-85572600D02*
X143802100Y-86207600D01*
X139357100Y-84302600D02*
X139992100Y-83667600D01*
X139357100Y-85572600D02*
X139357100Y-84302600D01*
X139992100Y-86207600D02*
X139357100Y-85572600D01*
X141262100Y-86207600D02*
X139992100Y-86207600D01*
%TO.C,JP11*%
X176822100Y-126720600D02*
X175552100Y-126720600D01*
X174917100Y-126085600D02*
X175552100Y-126720600D01*
X175552100Y-124180600D02*
X174917100Y-124815600D01*
X177457100Y-126085600D02*
X176822100Y-126720600D01*
X177457100Y-124815600D02*
X177457100Y-126085600D01*
X176822100Y-124180600D02*
X177457100Y-124815600D01*
X175552100Y-124180600D02*
X176822100Y-124180600D01*
X164122100Y-126720600D02*
X162852100Y-126720600D01*
X162217100Y-126085600D02*
X162852100Y-126720600D01*
X162852100Y-124180600D02*
X162217100Y-124815600D01*
X162217100Y-124815600D02*
X162217100Y-126085600D01*
X165392100Y-126720600D02*
X164757100Y-126085600D01*
X166662100Y-126720600D02*
X165392100Y-126720600D01*
X167297100Y-126085600D02*
X166662100Y-126720600D01*
X167297100Y-124815600D02*
X167297100Y-126085600D01*
X166662100Y-124180600D02*
X167297100Y-124815600D01*
X165392100Y-124180600D02*
X166662100Y-124180600D01*
X164757100Y-124815600D02*
X165392100Y-124180600D01*
X164757100Y-126085600D02*
X164122100Y-126720600D01*
X164757100Y-124815600D02*
X164757100Y-126085600D01*
X164122100Y-124180600D02*
X164757100Y-124815600D01*
X162852100Y-124180600D02*
X164122100Y-124180600D01*
X171742100Y-126720600D02*
X170472100Y-126720600D01*
X169837100Y-126085600D02*
X170472100Y-126720600D01*
X170472100Y-124180600D02*
X169837100Y-124815600D01*
X167932100Y-126720600D02*
X167297100Y-126085600D01*
X169202100Y-126720600D02*
X167932100Y-126720600D01*
X169837100Y-126085600D02*
X169202100Y-126720600D01*
X169837100Y-124815600D02*
X169837100Y-126085600D01*
X169202100Y-124180600D02*
X169837100Y-124815600D01*
X167932100Y-124180600D02*
X169202100Y-124180600D01*
X167297100Y-124815600D02*
X167932100Y-124180600D01*
X173012100Y-126720600D02*
X172377100Y-126085600D01*
X174282100Y-126720600D02*
X173012100Y-126720600D01*
X174917100Y-126085600D02*
X174282100Y-126720600D01*
X174917100Y-124815600D02*
X174917100Y-126085600D01*
X174282100Y-124180600D02*
X174917100Y-124815600D01*
X173012100Y-124180600D02*
X174282100Y-124180600D01*
X172377100Y-124815600D02*
X173012100Y-124180600D01*
X172377100Y-126085600D02*
X171742100Y-126720600D01*
X172377100Y-124815600D02*
X172377100Y-126085600D01*
X171742100Y-124180600D02*
X172377100Y-124815600D01*
X170472100Y-124180600D02*
X171742100Y-124180600D01*
%TO.C,JP17*%
X139700000Y-115570000D02*
X140970000Y-115570000D01*
X141605000Y-111125000D02*
X141605000Y-114935000D01*
X139065000Y-114935000D02*
X139700000Y-115570000D01*
X141605000Y-114935000D02*
X140970000Y-115570000D01*
X140970000Y-110490000D02*
X141605000Y-111125000D01*
X139700000Y-110490000D02*
X140970000Y-110490000D01*
X139065000Y-111125000D02*
X139700000Y-110490000D01*
X116840000Y-115570000D02*
X118110000Y-115570000D01*
X119380000Y-115570000D02*
X120650000Y-115570000D01*
X121920000Y-115570000D02*
X123190000Y-115570000D01*
X124460000Y-115570000D02*
X125730000Y-115570000D01*
X127000000Y-115570000D02*
X128270000Y-115570000D01*
X129540000Y-115570000D02*
X130810000Y-115570000D01*
X132080000Y-115570000D02*
X133350000Y-115570000D01*
X134620000Y-115570000D02*
X135890000Y-115570000D01*
X137160000Y-115570000D02*
X138430000Y-115570000D01*
X139065000Y-111125000D02*
X139065000Y-114935000D01*
X136525000Y-111125000D02*
X136525000Y-114935000D01*
X133985000Y-111125000D02*
X133985000Y-114935000D01*
X131445000Y-111125000D02*
X131445000Y-114935000D01*
X128905000Y-111125000D02*
X128905000Y-114935000D01*
X126365000Y-111125000D02*
X126365000Y-114935000D01*
X123825000Y-111125000D02*
X123825000Y-114935000D01*
X121285000Y-111125000D02*
X121285000Y-114935000D01*
X118745000Y-111125000D02*
X118745000Y-114935000D01*
X131445000Y-114935000D02*
X132080000Y-115570000D01*
X133985000Y-114935000D02*
X133350000Y-115570000D01*
X133985000Y-114935000D02*
X134620000Y-115570000D01*
X136525000Y-114935000D02*
X135890000Y-115570000D01*
X136525000Y-114935000D02*
X137160000Y-115570000D01*
X139065000Y-114935000D02*
X138430000Y-115570000D01*
X138430000Y-110490000D02*
X139065000Y-111125000D01*
X137160000Y-110490000D02*
X138430000Y-110490000D01*
X136525000Y-111125000D02*
X137160000Y-110490000D01*
X135890000Y-110490000D02*
X136525000Y-111125000D01*
X134620000Y-110490000D02*
X135890000Y-110490000D01*
X133985000Y-111125000D02*
X134620000Y-110490000D01*
X133350000Y-110490000D02*
X133985000Y-111125000D01*
X132080000Y-110490000D02*
X133350000Y-110490000D01*
X131445000Y-111125000D02*
X132080000Y-110490000D01*
X130810000Y-110490000D02*
X131445000Y-111125000D01*
X129540000Y-110490000D02*
X130810000Y-110490000D01*
X128905000Y-111125000D02*
X129540000Y-110490000D01*
X128270000Y-110490000D02*
X128905000Y-111125000D01*
X127000000Y-110490000D02*
X128270000Y-110490000D01*
X126365000Y-111125000D02*
X127000000Y-110490000D01*
X125730000Y-110490000D02*
X126365000Y-111125000D01*
X124460000Y-110490000D02*
X125730000Y-110490000D01*
X123825000Y-111125000D02*
X124460000Y-110490000D01*
X123190000Y-110490000D02*
X123825000Y-111125000D01*
X121920000Y-110490000D02*
X123190000Y-110490000D01*
X121285000Y-111125000D02*
X121920000Y-110490000D01*
X120650000Y-110490000D02*
X121285000Y-111125000D01*
X119380000Y-110490000D02*
X120650000Y-110490000D01*
X118745000Y-111125000D02*
X119380000Y-110490000D01*
X118110000Y-110490000D02*
X118745000Y-111125000D01*
X116840000Y-110490000D02*
X118110000Y-110490000D01*
X116205000Y-111125000D02*
X116840000Y-110490000D01*
X116205000Y-114935000D02*
X116205000Y-111125000D01*
X130810000Y-115570000D02*
X131445000Y-114935000D01*
X128905000Y-114935000D02*
X129540000Y-115570000D01*
X128270000Y-115570000D02*
X128905000Y-114935000D01*
X126365000Y-114935000D02*
X127000000Y-115570000D01*
X125730000Y-115570000D02*
X126365000Y-114935000D01*
X123825000Y-114935000D02*
X124460000Y-115570000D01*
X123190000Y-115570000D02*
X123825000Y-114935000D01*
X121285000Y-114935000D02*
X121920000Y-115570000D01*
X120650000Y-115570000D02*
X121285000Y-114935000D01*
X118745000Y-114935000D02*
X119380000Y-115570000D01*
X118110000Y-115570000D02*
X118745000Y-114935000D01*
X116205000Y-114935000D02*
X116840000Y-115570000D01*
%TO.C,JP19*%
X175171100Y-93954600D02*
X176441100Y-93954600D01*
X177076100Y-89509600D02*
X177076100Y-93319600D01*
X176441100Y-88874600D02*
X177076100Y-89509600D01*
X175171100Y-88874600D02*
X176441100Y-88874600D01*
X174536100Y-89509600D02*
X175171100Y-88874600D01*
X176441100Y-93954600D02*
X177076100Y-93319600D01*
X174536100Y-93319600D02*
X175171100Y-93954600D01*
X170091100Y-93954600D02*
X171361100Y-93954600D01*
X172631100Y-93954600D02*
X173901100Y-93954600D01*
X174536100Y-89509600D02*
X174536100Y-93319600D01*
X171996100Y-89509600D02*
X171996100Y-93319600D01*
X173901100Y-88874600D02*
X174536100Y-89509600D01*
X172631100Y-88874600D02*
X173901100Y-88874600D01*
X171996100Y-89509600D02*
X172631100Y-88874600D01*
X171361100Y-88874600D02*
X171996100Y-89509600D01*
X170091100Y-88874600D02*
X171361100Y-88874600D01*
X169456100Y-89509600D02*
X170091100Y-88874600D01*
X169456100Y-93319600D02*
X169456100Y-89509600D01*
X173901100Y-93954600D02*
X174536100Y-93319600D01*
X171996100Y-93319600D02*
X172631100Y-93954600D01*
X171361100Y-93954600D02*
X171996100Y-93319600D01*
X169456100Y-93319600D02*
X170091100Y-93954600D01*
%TO.C,R1*%
X165778031Y-118884795D02*
X166029991Y-118599003D01*
X167492785Y-120396554D02*
X167744745Y-120110762D01*
X166209242Y-118587725D02*
X169400733Y-114967689D01*
X166209242Y-118587725D02*
X166029991Y-118599003D01*
X167733467Y-119931511D02*
X170924958Y-116311475D01*
X167733467Y-119931511D02*
X167744745Y-120110762D01*
X169400733Y-114967689D02*
X169389455Y-114788438D01*
X169641415Y-114502646D02*
X169389455Y-114788438D01*
X170924958Y-116311475D02*
X171104209Y-116300197D01*
X171356169Y-116014405D02*
X171104209Y-116300197D01*
X167134284Y-120419109D02*
G75*
G03*
X167492785Y-120396554I167973J190528D01*
G01*
X165800586Y-119243296D02*
G75*
G02*
X165778031Y-118884795I167973J190528D01*
G01*
X169641415Y-114502646D02*
G75*
G02*
X169999916Y-114480091I190528J-167973D01*
G01*
X171356169Y-116014405D02*
G75*
G03*
X171333614Y-115655904I-190528J167973D01*
G01*
%TO.C,R2*%
X168308080Y-121151289D02*
X168562028Y-120867262D01*
X170012238Y-122674982D02*
X170266187Y-122390956D01*
X168741354Y-120857237D02*
X171958039Y-117259569D01*
X168741354Y-120857237D02*
X168562028Y-120867262D01*
X170256161Y-122211631D02*
X173472846Y-118613963D01*
X170256161Y-122211631D02*
X170266187Y-122390956D01*
X171958039Y-117259569D02*
X171948013Y-117080244D01*
X172201962Y-116796218D02*
X171948013Y-117080244D01*
X173472846Y-118613963D02*
X173652172Y-118603938D01*
X173906120Y-118319911D02*
X173652172Y-118603938D01*
X169653588Y-122695034D02*
G75*
G03*
X170012238Y-122674982I169299J189351D01*
G01*
X168328131Y-121509938D02*
G75*
G02*
X168308080Y-121151289I169299J189350D01*
G01*
X172201962Y-116796218D02*
G75*
G02*
X172560612Y-116776166I189351J-169299D01*
G01*
X173906121Y-118319911D02*
G75*
G03*
X173886069Y-117961261I-189351J169299D01*
G01*
D13*
%TO.C,S1*%
X121831100Y-85318600D02*
X121831100Y-83286600D01*
X122085100Y-83286600D02*
X122085100Y-85318600D01*
X122339100Y-85318600D02*
X122339100Y-83286600D01*
X122593100Y-83286600D02*
X122593100Y-85318600D01*
X122847100Y-85318600D02*
X122847100Y-83286600D01*
X123101100Y-83286600D02*
X123101100Y-85318600D01*
X123355100Y-85318600D02*
X123355100Y-83286600D01*
X123609100Y-83286600D02*
X123609100Y-85318600D01*
X119037100Y-83286600D02*
X123609100Y-83286600D01*
X119037100Y-85318600D02*
X119037100Y-83286600D01*
X123609100Y-85318600D02*
X119037100Y-85318600D01*
X127165100Y-85826600D02*
X127165100Y-86334600D01*
X126657100Y-85826600D02*
X127165100Y-85826600D01*
X126657100Y-82778600D02*
X126657100Y-85826600D01*
X127165100Y-82778600D02*
X126657100Y-82778600D01*
X127165100Y-82270600D02*
X127165100Y-82778600D01*
X121577100Y-82270600D02*
X127165100Y-82270600D01*
X121323100Y-82524600D02*
X121577100Y-82270600D01*
X121069100Y-82270600D02*
X121323100Y-82524600D01*
X115481100Y-82270600D02*
X121069100Y-82270600D01*
X115481100Y-82778600D02*
X115481100Y-82270600D01*
X115989100Y-82778600D02*
X115481100Y-82778600D01*
X115989100Y-85826600D02*
X115989100Y-82778600D01*
X115481100Y-85826600D02*
X115989100Y-85826600D01*
X115481100Y-86334600D02*
X115481100Y-85826600D01*
X121069100Y-86334600D02*
X115481100Y-86334600D01*
X121323100Y-86080600D02*
X121069100Y-86334600D01*
X121577100Y-86334600D02*
X121323100Y-86080600D01*
X127165100Y-86334600D02*
X121577100Y-86334600D01*
D14*
%TO.C,S2*%
X134162800Y-127228600D02*
G75*
G03*
X134162800Y-127228600I-254000J0D01*
G01*
X135686800Y-127228600D02*
G75*
G03*
X135686800Y-127228600I-1778000J0D01*
G01*
X130860800Y-126466600D02*
X130860800Y-126212600D01*
X130860800Y-127990600D02*
X130860800Y-128244600D01*
X136956800Y-126466600D02*
X136956800Y-126212600D01*
X136956800Y-127990600D02*
X136956800Y-128244600D01*
X135051800Y-130276600D02*
X136067800Y-130276600D01*
X132638800Y-130276600D02*
X135051800Y-130276600D01*
X132638800Y-124180600D02*
X131749800Y-124180600D01*
X135178800Y-124180600D02*
X132638800Y-124180600D01*
X136067800Y-124180600D02*
X135178800Y-124180600D01*
X131749800Y-130276600D02*
X132638800Y-130276600D01*
D16*
X132638800Y-130022600D02*
X132638800Y-130276600D01*
X135051800Y-130022600D02*
X135051800Y-130276600D01*
X135051800Y-130022600D02*
X132638800Y-130022600D01*
X135178800Y-124434600D02*
X135178800Y-124180600D01*
X135178800Y-124434600D02*
X132638800Y-124434600D01*
X132638800Y-124180600D02*
X132638800Y-124434600D01*
D14*
X130860800Y-127990600D02*
X130606800Y-127990600D01*
X130606800Y-126466600D02*
X130606800Y-127990600D01*
X130606800Y-126466600D02*
X130860800Y-126466600D01*
X136956800Y-126466600D02*
X137210800Y-126466600D01*
X137210800Y-127990600D02*
X137210800Y-126466600D01*
X137210800Y-127990600D02*
X136956800Y-127990600D01*
D17*
%TO.C,J2*%
X181670000Y-102870000D02*
X181670000Y-104200000D01*
X181670000Y-104200000D02*
X180340000Y-104200000D01*
X181670000Y-101600000D02*
X179070000Y-101600000D01*
X179070000Y-101600000D02*
X179070000Y-104200000D01*
X179070000Y-104200000D02*
X171390000Y-104200000D01*
X171390000Y-99000000D02*
X171390000Y-104200000D01*
X181670000Y-99000000D02*
X171390000Y-99000000D01*
X181670000Y-99000000D02*
X181670000Y-101600000D01*
%TO.C,J4*%
X119380000Y-87630000D02*
X139700000Y-87630000D01*
X119380000Y-92710000D02*
X119380000Y-87630000D01*
X139700000Y-92710000D02*
X119380000Y-92710000D01*
X139700000Y-87630000D02*
X139700000Y-92710000D01*
%TO.C,J5*%
X139700000Y-99060000D02*
X139700000Y-104140000D01*
X139700000Y-104140000D02*
X119380000Y-104140000D01*
X119380000Y-104140000D02*
X119380000Y-99060000D01*
X119380000Y-99060000D02*
X139700000Y-99060000D01*
%TO.C,J6*%
X119380000Y-104775000D02*
X139700000Y-104775000D01*
X119380000Y-109855000D02*
X119380000Y-104775000D01*
X139700000Y-109855000D02*
X119380000Y-109855000D01*
X139700000Y-104775000D02*
X139700000Y-109855000D01*
D14*
%TO.C,JP16*%
X139700000Y-120650000D02*
X140970000Y-120650000D01*
X141605000Y-116205000D02*
X141605000Y-120015000D01*
X139065000Y-120015000D02*
X139700000Y-120650000D01*
X141605000Y-120015000D02*
X140970000Y-120650000D01*
X140970000Y-115570000D02*
X141605000Y-116205000D01*
X139700000Y-115570000D02*
X140970000Y-115570000D01*
X139065000Y-116205000D02*
X139700000Y-115570000D01*
X116840000Y-120650000D02*
X118110000Y-120650000D01*
X119380000Y-120650000D02*
X120650000Y-120650000D01*
X121920000Y-120650000D02*
X123190000Y-120650000D01*
X124460000Y-120650000D02*
X125730000Y-120650000D01*
X127000000Y-120650000D02*
X128270000Y-120650000D01*
X129540000Y-120650000D02*
X130810000Y-120650000D01*
X132080000Y-120650000D02*
X133350000Y-120650000D01*
X134620000Y-120650000D02*
X135890000Y-120650000D01*
X137160000Y-120650000D02*
X138430000Y-120650000D01*
X139065000Y-116205000D02*
X139065000Y-120015000D01*
X136525000Y-116205000D02*
X136525000Y-120015000D01*
X133985000Y-116205000D02*
X133985000Y-120015000D01*
X131445000Y-116205000D02*
X131445000Y-120015000D01*
X128905000Y-116205000D02*
X128905000Y-120015000D01*
X126365000Y-116205000D02*
X126365000Y-120015000D01*
X123825000Y-116205000D02*
X123825000Y-120015000D01*
X121285000Y-116205000D02*
X121285000Y-120015000D01*
X118745000Y-116205000D02*
X118745000Y-120015000D01*
X131445000Y-120015000D02*
X132080000Y-120650000D01*
X133985000Y-120015000D02*
X133350000Y-120650000D01*
X133985000Y-120015000D02*
X134620000Y-120650000D01*
X136525000Y-120015000D02*
X135890000Y-120650000D01*
X136525000Y-120015000D02*
X137160000Y-120650000D01*
X139065000Y-120015000D02*
X138430000Y-120650000D01*
X138430000Y-115570000D02*
X139065000Y-116205000D01*
X137160000Y-115570000D02*
X138430000Y-115570000D01*
X136525000Y-116205000D02*
X137160000Y-115570000D01*
X135890000Y-115570000D02*
X136525000Y-116205000D01*
X134620000Y-115570000D02*
X135890000Y-115570000D01*
X133985000Y-116205000D02*
X134620000Y-115570000D01*
X133350000Y-115570000D02*
X133985000Y-116205000D01*
X132080000Y-115570000D02*
X133350000Y-115570000D01*
X131445000Y-116205000D02*
X132080000Y-115570000D01*
X130810000Y-115570000D02*
X131445000Y-116205000D01*
X129540000Y-115570000D02*
X130810000Y-115570000D01*
X128905000Y-116205000D02*
X129540000Y-115570000D01*
X128270000Y-115570000D02*
X128905000Y-116205000D01*
X127000000Y-115570000D02*
X128270000Y-115570000D01*
X126365000Y-116205000D02*
X127000000Y-115570000D01*
X125730000Y-115570000D02*
X126365000Y-116205000D01*
X124460000Y-115570000D02*
X125730000Y-115570000D01*
X123825000Y-116205000D02*
X124460000Y-115570000D01*
X123190000Y-115570000D02*
X123825000Y-116205000D01*
X121920000Y-115570000D02*
X123190000Y-115570000D01*
X121285000Y-116205000D02*
X121920000Y-115570000D01*
X120650000Y-115570000D02*
X121285000Y-116205000D01*
X119380000Y-115570000D02*
X120650000Y-115570000D01*
X118745000Y-116205000D02*
X119380000Y-115570000D01*
X118110000Y-115570000D02*
X118745000Y-116205000D01*
X116840000Y-115570000D02*
X118110000Y-115570000D01*
X116205000Y-116205000D02*
X116840000Y-115570000D01*
X116205000Y-120015000D02*
X116205000Y-116205000D01*
X130810000Y-120650000D02*
X131445000Y-120015000D01*
X128905000Y-120015000D02*
X129540000Y-120650000D01*
X128270000Y-120650000D02*
X128905000Y-120015000D01*
X126365000Y-120015000D02*
X127000000Y-120650000D01*
X125730000Y-120650000D02*
X126365000Y-120015000D01*
X123825000Y-120015000D02*
X124460000Y-120650000D01*
X123190000Y-120650000D02*
X123825000Y-120015000D01*
X121285000Y-120015000D02*
X121920000Y-120650000D01*
X120650000Y-120650000D02*
X121285000Y-120015000D01*
X118745000Y-120015000D02*
X119380000Y-120650000D01*
X118110000Y-120650000D02*
X118745000Y-120015000D01*
X116205000Y-120015000D02*
X116840000Y-120650000D01*
D17*
%TO.C,J3*%
X139700000Y-93345000D02*
X139700000Y-98425000D01*
X139700000Y-98425000D02*
X119380000Y-98425000D01*
X119380000Y-98425000D02*
X119380000Y-93345000D01*
X119380000Y-93345000D02*
X139700000Y-93345000D01*
D14*
%TO.C,J7*%
X116205000Y-94615000D02*
X117475000Y-94615000D01*
X117475000Y-94615000D02*
X118110000Y-95250000D01*
X118110000Y-95250000D02*
X118110000Y-96520000D01*
X118110000Y-96520000D02*
X117475000Y-97155000D01*
X115570000Y-95250000D02*
X115570000Y-96520000D01*
X116205000Y-94615000D02*
X115570000Y-95250000D01*
X115570000Y-96520000D02*
X116205000Y-97155000D01*
X117475000Y-97155000D02*
X116205000Y-97155000D01*
%TO.C,J8*%
X117475000Y-91440000D02*
X116205000Y-91440000D01*
X115570000Y-90805000D02*
X116205000Y-91440000D01*
X116205000Y-88900000D02*
X115570000Y-89535000D01*
X115570000Y-89535000D02*
X115570000Y-90805000D01*
X118110000Y-90805000D02*
X117475000Y-91440000D01*
X118110000Y-89535000D02*
X118110000Y-90805000D01*
X117475000Y-88900000D02*
X118110000Y-89535000D01*
X116205000Y-88900000D02*
X117475000Y-88900000D01*
%TO.C,J9*%
X116205000Y-100330000D02*
X117475000Y-100330000D01*
X117475000Y-100330000D02*
X118110000Y-100965000D01*
X118110000Y-100965000D02*
X118110000Y-102235000D01*
X118110000Y-102235000D02*
X117475000Y-102870000D01*
X115570000Y-100965000D02*
X115570000Y-102235000D01*
X116205000Y-100330000D02*
X115570000Y-100965000D01*
X115570000Y-102235000D02*
X116205000Y-102870000D01*
X117475000Y-102870000D02*
X116205000Y-102870000D01*
%TO.C,J10*%
X117475000Y-108585000D02*
X116205000Y-108585000D01*
X115570000Y-107950000D02*
X116205000Y-108585000D01*
X116205000Y-106045000D02*
X115570000Y-106680000D01*
X115570000Y-106680000D02*
X115570000Y-107950000D01*
X118110000Y-107950000D02*
X117475000Y-108585000D01*
X118110000Y-106680000D02*
X118110000Y-107950000D01*
X117475000Y-106045000D02*
X118110000Y-106680000D01*
X116205000Y-106045000D02*
X117475000Y-106045000D01*
D17*
%TO.C,D1*%
X150805000Y-107825000D02*
X150805000Y-109285000D01*
X147645000Y-107825000D02*
X147645000Y-109985000D01*
X147645000Y-107825000D02*
X148575000Y-107825000D01*
X150805000Y-107825000D02*
X149875000Y-107825000D01*
%TO.C,D2*%
X150805000Y-100840000D02*
X149875000Y-100840000D01*
X147645000Y-100840000D02*
X148575000Y-100840000D01*
X147645000Y-100840000D02*
X147645000Y-103000000D01*
X150805000Y-100840000D02*
X150805000Y-102300000D01*
%TO.C,Q1*%
X144020000Y-101090000D02*
X144020000Y-99690000D01*
X141700000Y-99690000D02*
X141700000Y-101590000D01*
%TO.C,Q2*%
X141715000Y-105980000D02*
X141715000Y-107880000D01*
X144035000Y-107380000D02*
X144035000Y-105980000D01*
%TO.C,J11*%
X116145000Y-130870000D02*
X121345000Y-130870000D01*
X116145000Y-128270000D02*
X116145000Y-130870000D01*
X121345000Y-125670000D02*
X121345000Y-130870000D01*
X116145000Y-128270000D02*
X118745000Y-128270000D01*
X118745000Y-128270000D02*
X118745000Y-125670000D01*
X118745000Y-125670000D02*
X121345000Y-125670000D01*
X116145000Y-127000000D02*
X116145000Y-125670000D01*
X116145000Y-125670000D02*
X117475000Y-125670000D01*
%TO.C,J1*%
X178595000Y-118620000D02*
X179705000Y-118620000D01*
X178595000Y-119380000D02*
X178595000Y-118620000D01*
X180268471Y-120140000D02*
X180815000Y-120140000D01*
X178595000Y-120140000D02*
X179141529Y-120140000D01*
X180815000Y-120140000D02*
X180815000Y-123885000D01*
X178595000Y-120140000D02*
X178595000Y-123885000D01*
X180012530Y-123885000D02*
X180815000Y-123885000D01*
X178595000Y-123885000D02*
X179397470Y-123885000D01*
%TO.C,R3*%
X152935000Y-104964564D02*
X152935000Y-104510436D01*
X154405000Y-104964564D02*
X154405000Y-104510436D01*
%TO.C,R4*%
X154405000Y-109409564D02*
X154405000Y-108955436D01*
X152935000Y-109409564D02*
X152935000Y-108955436D01*
%TO.C,R5*%
X152935000Y-100519564D02*
X152935000Y-100065436D01*
X154405000Y-100519564D02*
X154405000Y-100065436D01*
%TO.C,R6*%
X154405000Y-96112064D02*
X154405000Y-95657936D01*
X152935000Y-96112064D02*
X152935000Y-95657936D01*
%TO.C,R7*%
X123725000Y-127792063D02*
X123725000Y-127337935D01*
X125195000Y-127792063D02*
X125195000Y-127337935D01*
%TO.C,R8*%
X128370000Y-127792063D02*
X128370000Y-127337935D01*
X126900000Y-127792063D02*
X126900000Y-127337935D01*
%TO.C,U1*%
D12*
X143947641Y-127817638D02*
X143947641Y-126852438D01*
X144591108Y-126852438D02*
X144774955Y-126852438D01*
X144866879Y-126898400D01*
X144958803Y-126990323D01*
X145004765Y-127174171D01*
X145004765Y-127495904D01*
X144958803Y-127679752D01*
X144866879Y-127771676D01*
X144774955Y-127817638D01*
X144591108Y-127817638D01*
X144499184Y-127771676D01*
X144407260Y-127679752D01*
X144361298Y-127495904D01*
X144361298Y-127174171D01*
X144407260Y-126990323D01*
X144499184Y-126898400D01*
X144591108Y-126852438D01*
X145418422Y-127817638D02*
X145418422Y-127174171D01*
X145418422Y-127358019D02*
X145464384Y-127266095D01*
X145510346Y-127220133D01*
X145602270Y-127174171D01*
X145694193Y-127174171D01*
X134386779Y-79511676D02*
X134524665Y-79557638D01*
X134754474Y-79557638D01*
X134846398Y-79511676D01*
X134892360Y-79465714D01*
X134938322Y-79373790D01*
X134938322Y-79281866D01*
X134892360Y-79189942D01*
X134846398Y-79143980D01*
X134754474Y-79098019D01*
X134570627Y-79052057D01*
X134478703Y-79006095D01*
X134432741Y-78960133D01*
X134386779Y-78868209D01*
X134386779Y-78776285D01*
X134432741Y-78684361D01*
X134478703Y-78638400D01*
X134570627Y-78592438D01*
X134800436Y-78592438D01*
X134938322Y-78638400D01*
X135351979Y-79557638D02*
X135351979Y-78592438D01*
X135581789Y-78592438D01*
X135719674Y-78638400D01*
X135811598Y-78730323D01*
X135857560Y-78822247D01*
X135903522Y-79006095D01*
X135903522Y-79143980D01*
X135857560Y-79327828D01*
X135811598Y-79419752D01*
X135719674Y-79511676D01*
X135581789Y-79557638D01*
X135351979Y-79557638D01*
X136271217Y-79281866D02*
X136730836Y-79281866D01*
X136179293Y-79557638D02*
X136501027Y-78592438D01*
X136822760Y-79557638D01*
X132100779Y-83067676D02*
X132238665Y-83113638D01*
X132468474Y-83113638D01*
X132560398Y-83067676D01*
X132606360Y-83021714D01*
X132652322Y-82929790D01*
X132652322Y-82837866D01*
X132606360Y-82745942D01*
X132560398Y-82699980D01*
X132468474Y-82654019D01*
X132284627Y-82608057D01*
X132192703Y-82562095D01*
X132146741Y-82516133D01*
X132100779Y-82424209D01*
X132100779Y-82332285D01*
X132146741Y-82240361D01*
X132192703Y-82194400D01*
X132284627Y-82148438D01*
X132514436Y-82148438D01*
X132652322Y-82194400D01*
X133617522Y-83021714D02*
X133571560Y-83067676D01*
X133433674Y-83113638D01*
X133341751Y-83113638D01*
X133203865Y-83067676D01*
X133111941Y-82975752D01*
X133065979Y-82883828D01*
X133020017Y-82699980D01*
X133020017Y-82562095D01*
X133065979Y-82378247D01*
X133111941Y-82286323D01*
X133203865Y-82194400D01*
X133341751Y-82148438D01*
X133433674Y-82148438D01*
X133571560Y-82194400D01*
X133617522Y-82240361D01*
X134490798Y-83113638D02*
X134031179Y-83113638D01*
X134031179Y-82148438D01*
X165420741Y-79557638D02*
X165420741Y-78592438D01*
X165650551Y-78592438D01*
X165788436Y-78638400D01*
X165880360Y-78730323D01*
X165926322Y-78822247D01*
X165972284Y-79006095D01*
X165972284Y-79143980D01*
X165926322Y-79327828D01*
X165880360Y-79419752D01*
X165788436Y-79511676D01*
X165650551Y-79557638D01*
X165420741Y-79557638D01*
X166385941Y-79557638D02*
X166385941Y-78914171D01*
X166385941Y-78592438D02*
X166339979Y-78638400D01*
X166385941Y-78684361D01*
X166431903Y-78638400D01*
X166385941Y-78592438D01*
X166385941Y-78684361D01*
X167259217Y-78914171D02*
X167259217Y-79695523D01*
X167213255Y-79787447D01*
X167167293Y-79833409D01*
X167075370Y-79879371D01*
X166937484Y-79879371D01*
X166845560Y-79833409D01*
X167259217Y-79511676D02*
X167167293Y-79557638D01*
X166983446Y-79557638D01*
X166891522Y-79511676D01*
X166845560Y-79465714D01*
X166799598Y-79373790D01*
X166799598Y-79098019D01*
X166845560Y-79006095D01*
X166891522Y-78960133D01*
X166983446Y-78914171D01*
X167167293Y-78914171D01*
X167259217Y-78960133D01*
X167718836Y-79557638D02*
X167718836Y-78914171D01*
X167718836Y-78592438D02*
X167672874Y-78638400D01*
X167718836Y-78684361D01*
X167764798Y-78638400D01*
X167718836Y-78592438D01*
X167718836Y-78684361D01*
X168040570Y-78914171D02*
X168408265Y-78914171D01*
X168178455Y-78592438D02*
X168178455Y-79419752D01*
X168224417Y-79511676D01*
X168316341Y-79557638D01*
X168408265Y-79557638D01*
X169143655Y-79557638D02*
X169143655Y-79052057D01*
X169097693Y-78960133D01*
X169005770Y-78914171D01*
X168821922Y-78914171D01*
X168729998Y-78960133D01*
X169143655Y-79511676D02*
X169051732Y-79557638D01*
X168821922Y-79557638D01*
X168729998Y-79511676D01*
X168684036Y-79419752D01*
X168684036Y-79327828D01*
X168729998Y-79235904D01*
X168821922Y-79189942D01*
X169051732Y-79189942D01*
X169143655Y-79143980D01*
X169741160Y-79557638D02*
X169649236Y-79511676D01*
X169603274Y-79419752D01*
X169603274Y-78592438D01*
X170844246Y-79557638D02*
X170844246Y-78592438D01*
X171993293Y-78546476D02*
X171165979Y-79787447D01*
X172498874Y-78592438D02*
X172682722Y-78592438D01*
X172774646Y-78638400D01*
X172866570Y-78730323D01*
X172912532Y-78914171D01*
X172912532Y-79235904D01*
X172866570Y-79419752D01*
X172774646Y-79511676D01*
X172682722Y-79557638D01*
X172498874Y-79557638D01*
X172406951Y-79511676D01*
X172315027Y-79419752D01*
X172269065Y-79235904D01*
X172269065Y-78914171D01*
X172315027Y-78730323D01*
X172406951Y-78638400D01*
X172498874Y-78592438D01*
X146116741Y-79557638D02*
X146116741Y-78592438D01*
X146346551Y-78592438D01*
X146484436Y-78638400D01*
X146576360Y-78730323D01*
X146622322Y-78822247D01*
X146668284Y-79006095D01*
X146668284Y-79143980D01*
X146622322Y-79327828D01*
X146576360Y-79419752D01*
X146484436Y-79511676D01*
X146346551Y-79557638D01*
X146116741Y-79557638D01*
X147081941Y-79557638D02*
X147081941Y-78914171D01*
X147081941Y-78592438D02*
X147035979Y-78638400D01*
X147081941Y-78684361D01*
X147127903Y-78638400D01*
X147081941Y-78592438D01*
X147081941Y-78684361D01*
X147955217Y-78914171D02*
X147955217Y-79695523D01*
X147909255Y-79787447D01*
X147863293Y-79833409D01*
X147771370Y-79879371D01*
X147633484Y-79879371D01*
X147541560Y-79833409D01*
X147955217Y-79511676D02*
X147863293Y-79557638D01*
X147679446Y-79557638D01*
X147587522Y-79511676D01*
X147541560Y-79465714D01*
X147495598Y-79373790D01*
X147495598Y-79098019D01*
X147541560Y-79006095D01*
X147587522Y-78960133D01*
X147679446Y-78914171D01*
X147863293Y-78914171D01*
X147955217Y-78960133D01*
X148414836Y-79557638D02*
X148414836Y-78914171D01*
X148414836Y-78592438D02*
X148368874Y-78638400D01*
X148414836Y-78684361D01*
X148460798Y-78638400D01*
X148414836Y-78592438D01*
X148414836Y-78684361D01*
X148736570Y-78914171D02*
X149104265Y-78914171D01*
X148874455Y-78592438D02*
X148874455Y-79419752D01*
X148920417Y-79511676D01*
X149012341Y-79557638D01*
X149104265Y-79557638D01*
X149839655Y-79557638D02*
X149839655Y-79052057D01*
X149793693Y-78960133D01*
X149701770Y-78914171D01*
X149517922Y-78914171D01*
X149425998Y-78960133D01*
X149839655Y-79511676D02*
X149747732Y-79557638D01*
X149517922Y-79557638D01*
X149425998Y-79511676D01*
X149380036Y-79419752D01*
X149380036Y-79327828D01*
X149425998Y-79235904D01*
X149517922Y-79189942D01*
X149747732Y-79189942D01*
X149839655Y-79143980D01*
X150437160Y-79557638D02*
X150345236Y-79511676D01*
X150299274Y-79419752D01*
X150299274Y-78592438D01*
X151540246Y-79557638D02*
X151540246Y-78592438D01*
X152689293Y-78546476D02*
X151861979Y-79787447D01*
X153194874Y-78592438D02*
X153378722Y-78592438D01*
X153470646Y-78638400D01*
X153562570Y-78730323D01*
X153608532Y-78914171D01*
X153608532Y-79235904D01*
X153562570Y-79419752D01*
X153470646Y-79511676D01*
X153378722Y-79557638D01*
X153194874Y-79557638D01*
X153102951Y-79511676D01*
X153011027Y-79419752D01*
X152965065Y-79235904D01*
X152965065Y-78914171D01*
X153011027Y-78730323D01*
X153102951Y-78638400D01*
X153194874Y-78592438D01*
X177787687Y-82097638D02*
X177879610Y-82097638D01*
X177971534Y-82143600D01*
X178017496Y-82189561D01*
X178063458Y-82281485D01*
X178109420Y-82465333D01*
X178109420Y-82695142D01*
X178063458Y-82878990D01*
X178017496Y-82970914D01*
X177971534Y-83016876D01*
X177879610Y-83062838D01*
X177787687Y-83062838D01*
X177695763Y-83016876D01*
X177649801Y-82970914D01*
X177603839Y-82878990D01*
X177557877Y-82695142D01*
X177557877Y-82465333D01*
X177603839Y-82281485D01*
X177649801Y-82189561D01*
X177695763Y-82143600D01*
X177787687Y-82097638D01*
X175569420Y-83062838D02*
X175017877Y-83062838D01*
X175293648Y-83062838D02*
X175293648Y-82097638D01*
X175201725Y-82235523D01*
X175109801Y-82327447D01*
X175017877Y-82373409D01*
X172477877Y-82189561D02*
X172523839Y-82143600D01*
X172615763Y-82097638D01*
X172845572Y-82097638D01*
X172937496Y-82143600D01*
X172983458Y-82189561D01*
X173029420Y-82281485D01*
X173029420Y-82373409D01*
X172983458Y-82511295D01*
X172431915Y-83062838D01*
X173029420Y-83062838D01*
X169891915Y-82097638D02*
X170489420Y-82097638D01*
X170167687Y-82465333D01*
X170305572Y-82465333D01*
X170397496Y-82511295D01*
X170443458Y-82557257D01*
X170489420Y-82649180D01*
X170489420Y-82878990D01*
X170443458Y-82970914D01*
X170397496Y-83016876D01*
X170305572Y-83062838D01*
X170029801Y-83062838D01*
X169937877Y-83016876D01*
X169891915Y-82970914D01*
X167857496Y-82419371D02*
X167857496Y-83062838D01*
X167627687Y-82051676D02*
X167397877Y-82741104D01*
X167995382Y-82741104D01*
X165363458Y-82097638D02*
X164903839Y-82097638D01*
X164857877Y-82557257D01*
X164903839Y-82511295D01*
X164995763Y-82465333D01*
X165225572Y-82465333D01*
X165317496Y-82511295D01*
X165363458Y-82557257D01*
X165409420Y-82649180D01*
X165409420Y-82878990D01*
X165363458Y-82970914D01*
X165317496Y-83016876D01*
X165225572Y-83062838D01*
X164995763Y-83062838D01*
X164903839Y-83016876D01*
X164857877Y-82970914D01*
X162777496Y-82097638D02*
X162593648Y-82097638D01*
X162501725Y-82143600D01*
X162455763Y-82189561D01*
X162363839Y-82327447D01*
X162317877Y-82511295D01*
X162317877Y-82878990D01*
X162363839Y-82970914D01*
X162409801Y-83016876D01*
X162501725Y-83062838D01*
X162685572Y-83062838D01*
X162777496Y-83016876D01*
X162823458Y-82970914D01*
X162869420Y-82878990D01*
X162869420Y-82649180D01*
X162823458Y-82557257D01*
X162777496Y-82511295D01*
X162685572Y-82465333D01*
X162501725Y-82465333D01*
X162409801Y-82511295D01*
X162363839Y-82557257D01*
X162317877Y-82649180D01*
X159731915Y-82097638D02*
X160375382Y-82097638D01*
X159961725Y-83062838D01*
X155897725Y-82511295D02*
X155805801Y-82465333D01*
X155759839Y-82419371D01*
X155713877Y-82327447D01*
X155713877Y-82281485D01*
X155759839Y-82189561D01*
X155805801Y-82143600D01*
X155897725Y-82097638D01*
X156081572Y-82097638D01*
X156173496Y-82143600D01*
X156219458Y-82189561D01*
X156265420Y-82281485D01*
X156265420Y-82327447D01*
X156219458Y-82419371D01*
X156173496Y-82465333D01*
X156081572Y-82511295D01*
X155897725Y-82511295D01*
X155805801Y-82557257D01*
X155759839Y-82603219D01*
X155713877Y-82695142D01*
X155713877Y-82878990D01*
X155759839Y-82970914D01*
X155805801Y-83016876D01*
X155897725Y-83062838D01*
X156081572Y-83062838D01*
X156173496Y-83016876D01*
X156219458Y-82970914D01*
X156265420Y-82878990D01*
X156265420Y-82695142D01*
X156219458Y-82603219D01*
X156173496Y-82557257D01*
X156081572Y-82511295D01*
X153265801Y-83062838D02*
X153449648Y-83062838D01*
X153541572Y-83016876D01*
X153587534Y-82970914D01*
X153679458Y-82833028D01*
X153725420Y-82649180D01*
X153725420Y-82281485D01*
X153679458Y-82189561D01*
X153633496Y-82143600D01*
X153541572Y-82097638D01*
X153357725Y-82097638D01*
X153265801Y-82143600D01*
X153219839Y-82189561D01*
X153173877Y-82281485D01*
X153173877Y-82511295D01*
X153219839Y-82603219D01*
X153265801Y-82649180D01*
X153357725Y-82695142D01*
X153541572Y-82695142D01*
X153633496Y-82649180D01*
X153679458Y-82603219D01*
X153725420Y-82511295D01*
X150774182Y-83062838D02*
X150222639Y-83062838D01*
X150498410Y-83062838D02*
X150498410Y-82097638D01*
X150406487Y-82235523D01*
X150314563Y-82327447D01*
X150222639Y-82373409D01*
X151371687Y-82097638D02*
X151463610Y-82097638D01*
X151555534Y-82143600D01*
X151601496Y-82189561D01*
X151647458Y-82281485D01*
X151693420Y-82465333D01*
X151693420Y-82695142D01*
X151647458Y-82878990D01*
X151601496Y-82970914D01*
X151555534Y-83016876D01*
X151463610Y-83062838D01*
X151371687Y-83062838D01*
X151279763Y-83016876D01*
X151233801Y-82970914D01*
X151187839Y-82878990D01*
X151141877Y-82695142D01*
X151141877Y-82465333D01*
X151187839Y-82281485D01*
X151233801Y-82189561D01*
X151279763Y-82143600D01*
X151371687Y-82097638D01*
X148234182Y-83062838D02*
X147682639Y-83062838D01*
X147958410Y-83062838D02*
X147958410Y-82097638D01*
X147866487Y-82235523D01*
X147774563Y-82327447D01*
X147682639Y-82373409D01*
X149153420Y-83062838D02*
X148601877Y-83062838D01*
X148877648Y-83062838D02*
X148877648Y-82097638D01*
X148785725Y-82235523D01*
X148693801Y-82327447D01*
X148601877Y-82373409D01*
X145694182Y-83062838D02*
X145142639Y-83062838D01*
X145418410Y-83062838D02*
X145418410Y-82097638D01*
X145326487Y-82235523D01*
X145234563Y-82327447D01*
X145142639Y-82373409D01*
X146061877Y-82189561D02*
X146107839Y-82143600D01*
X146199763Y-82097638D01*
X146429572Y-82097638D01*
X146521496Y-82143600D01*
X146567458Y-82189561D01*
X146613420Y-82281485D01*
X146613420Y-82373409D01*
X146567458Y-82511295D01*
X146015915Y-83062838D01*
X146613420Y-83062838D01*
X143154182Y-83062838D02*
X142602639Y-83062838D01*
X142878410Y-83062838D02*
X142878410Y-82097638D01*
X142786487Y-82235523D01*
X142694563Y-82327447D01*
X142602639Y-82373409D01*
X143475915Y-82097638D02*
X144073420Y-82097638D01*
X143751687Y-82465333D01*
X143889572Y-82465333D01*
X143981496Y-82511295D01*
X144027458Y-82557257D01*
X144073420Y-82649180D01*
X144073420Y-82878990D01*
X144027458Y-82970914D01*
X143981496Y-83016876D01*
X143889572Y-83062838D01*
X143613801Y-83062838D01*
X143521877Y-83016876D01*
X143475915Y-82970914D01*
X140145322Y-78638400D02*
X140053398Y-78592438D01*
X139915512Y-78592438D01*
X139777627Y-78638400D01*
X139685703Y-78730323D01*
X139639741Y-78822247D01*
X139593779Y-79006095D01*
X139593779Y-79143980D01*
X139639741Y-79327828D01*
X139685703Y-79419752D01*
X139777627Y-79511676D01*
X139915512Y-79557638D01*
X140007436Y-79557638D01*
X140145322Y-79511676D01*
X140191284Y-79465714D01*
X140191284Y-79143980D01*
X140007436Y-79143980D01*
X140604941Y-78914171D02*
X140604941Y-79557638D01*
X140604941Y-79006095D02*
X140650903Y-78960133D01*
X140742827Y-78914171D01*
X140880712Y-78914171D01*
X140972636Y-78960133D01*
X141018598Y-79052057D01*
X141018598Y-79557638D01*
X141891874Y-79557638D02*
X141891874Y-78592438D01*
X141891874Y-79511676D02*
X141799951Y-79557638D01*
X141616103Y-79557638D01*
X141524179Y-79511676D01*
X141478217Y-79465714D01*
X141432255Y-79373790D01*
X141432255Y-79098019D01*
X141478217Y-79006095D01*
X141524179Y-78960133D01*
X141616103Y-78914171D01*
X141799951Y-78914171D01*
X141891874Y-78960133D01*
X136672779Y-82837866D02*
X137132398Y-82837866D01*
X136580855Y-83113638D02*
X136902589Y-82148438D01*
X137224322Y-83113638D01*
X138097598Y-83113638D02*
X137775865Y-82654019D01*
X137546055Y-83113638D02*
X137546055Y-82148438D01*
X137913751Y-82148438D01*
X138005674Y-82194400D01*
X138051636Y-82240361D01*
X138097598Y-82332285D01*
X138097598Y-82470171D01*
X138051636Y-82562095D01*
X138005674Y-82608057D01*
X137913751Y-82654019D01*
X137546055Y-82654019D01*
X138878951Y-83067676D02*
X138787027Y-83113638D01*
X138603179Y-83113638D01*
X138511255Y-83067676D01*
X138465293Y-82975752D01*
X138465293Y-82608057D01*
X138511255Y-82516133D01*
X138603179Y-82470171D01*
X138787027Y-82470171D01*
X138878951Y-82516133D01*
X138924912Y-82608057D01*
X138924912Y-82699980D01*
X138465293Y-82791904D01*
X139200684Y-82470171D02*
X139568379Y-82470171D01*
X139338570Y-83113638D02*
X139338570Y-82286323D01*
X139384532Y-82194400D01*
X139476455Y-82148438D01*
X139568379Y-82148438D01*
X178072360Y-126852438D02*
X177612741Y-126852438D01*
X177566779Y-127312057D01*
X177612741Y-127266095D01*
X177704665Y-127220133D01*
X177934474Y-127220133D01*
X178026398Y-127266095D01*
X178072360Y-127312057D01*
X178118322Y-127403980D01*
X178118322Y-127633790D01*
X178072360Y-127725714D01*
X178026398Y-127771676D01*
X177934474Y-127817638D01*
X177704665Y-127817638D01*
X177612741Y-127771676D01*
X177566779Y-127725714D01*
X175486398Y-127174171D02*
X175486398Y-127817638D01*
X175256589Y-126806476D02*
X175026779Y-127495904D01*
X175624284Y-127495904D01*
X172440817Y-126852438D02*
X173038322Y-126852438D01*
X172716589Y-127220133D01*
X172854474Y-127220133D01*
X172946398Y-127266095D01*
X172992360Y-127312057D01*
X173038322Y-127403980D01*
X173038322Y-127633790D01*
X172992360Y-127725714D01*
X172946398Y-127771676D01*
X172854474Y-127817638D01*
X172578703Y-127817638D01*
X172486779Y-127771676D01*
X172440817Y-127725714D01*
X169946779Y-126944361D02*
X169992741Y-126898400D01*
X170084665Y-126852438D01*
X170314474Y-126852438D01*
X170406398Y-126898400D01*
X170452360Y-126944361D01*
X170498322Y-127036285D01*
X170498322Y-127128209D01*
X170452360Y-127266095D01*
X169900817Y-127817638D01*
X170498322Y-127817638D01*
X167958322Y-127817638D02*
X167406779Y-127817638D01*
X167682551Y-127817638D02*
X167682551Y-126852438D01*
X167590627Y-126990323D01*
X167498703Y-127082247D01*
X167406779Y-127128209D01*
X165096589Y-126852438D02*
X165188512Y-126852438D01*
X165280436Y-126898400D01*
X165326398Y-126944361D01*
X165372360Y-127036285D01*
X165418322Y-127220133D01*
X165418322Y-127449942D01*
X165372360Y-127633790D01*
X165326398Y-127725714D01*
X165280436Y-127771676D01*
X165188512Y-127817638D01*
X165096589Y-127817638D01*
X165004665Y-127771676D01*
X164958703Y-127725714D01*
X164912741Y-127633790D01*
X164866779Y-127449942D01*
X164866779Y-127220133D01*
X164912741Y-127036285D01*
X164958703Y-126944361D01*
X165004665Y-126898400D01*
X165096589Y-126852438D01*
X168559879Y-130889566D02*
X169019498Y-130889566D01*
X168467955Y-131165338D02*
X168789689Y-130200138D01*
X169111422Y-131165338D01*
X169433155Y-130521871D02*
X169433155Y-131165338D01*
X169433155Y-130613795D02*
X169479117Y-130567833D01*
X169571041Y-130521871D01*
X169708927Y-130521871D01*
X169800851Y-130567833D01*
X169846812Y-130659757D01*
X169846812Y-131165338D01*
X170720089Y-131165338D02*
X170720089Y-130659757D01*
X170674127Y-130567833D01*
X170582203Y-130521871D01*
X170398355Y-130521871D01*
X170306432Y-130567833D01*
X170720089Y-131119376D02*
X170628165Y-131165338D01*
X170398355Y-131165338D01*
X170306432Y-131119376D01*
X170260470Y-131027452D01*
X170260470Y-130935528D01*
X170306432Y-130843604D01*
X170398355Y-130797642D01*
X170628165Y-130797642D01*
X170720089Y-130751680D01*
X171317593Y-131165338D02*
X171225670Y-131119376D01*
X171179708Y-131027452D01*
X171179708Y-130200138D01*
X171823174Y-131165338D02*
X171731251Y-131119376D01*
X171685289Y-131073414D01*
X171639327Y-130981490D01*
X171639327Y-130705719D01*
X171685289Y-130613795D01*
X171731251Y-130567833D01*
X171823174Y-130521871D01*
X171961060Y-130521871D01*
X172052984Y-130567833D01*
X172098946Y-130613795D01*
X172144908Y-130705719D01*
X172144908Y-130981490D01*
X172098946Y-131073414D01*
X172052984Y-131119376D01*
X171961060Y-131165338D01*
X171823174Y-131165338D01*
X172972222Y-130521871D02*
X172972222Y-131303223D01*
X172926260Y-131395147D01*
X172880298Y-131441109D01*
X172788374Y-131487071D01*
X172650489Y-131487071D01*
X172558565Y-131441109D01*
X172972222Y-131119376D02*
X172880298Y-131165338D01*
X172696451Y-131165338D01*
X172604527Y-131119376D01*
X172558565Y-131073414D01*
X172512603Y-130981490D01*
X172512603Y-130705719D01*
X172558565Y-130613795D01*
X172604527Y-130567833D01*
X172696451Y-130521871D01*
X172880298Y-130521871D01*
X172972222Y-130567833D01*
X174167232Y-131165338D02*
X174167232Y-130200138D01*
X174626851Y-130521871D02*
X174626851Y-131165338D01*
X174626851Y-130613795D02*
X174672812Y-130567833D01*
X174764736Y-130521871D01*
X174902622Y-130521871D01*
X174994546Y-130567833D01*
X175040508Y-130659757D01*
X175040508Y-131165338D01*
X159141155Y-126852438D02*
X159462889Y-127817638D01*
X159784622Y-126852438D01*
X160106355Y-127817638D02*
X160106355Y-127174171D01*
X160106355Y-126852438D02*
X160060393Y-126898400D01*
X160106355Y-126944361D01*
X160152317Y-126898400D01*
X160106355Y-126852438D01*
X160106355Y-126944361D01*
X160565974Y-127174171D02*
X160565974Y-127817638D01*
X160565974Y-127266095D02*
X160611936Y-127220133D01*
X160703860Y-127174171D01*
X160841746Y-127174171D01*
X160933670Y-127220133D01*
X160979632Y-127312057D01*
X160979632Y-127817638D01*
X155776422Y-126898400D02*
X155684498Y-126852438D01*
X155546612Y-126852438D01*
X155408727Y-126898400D01*
X155316803Y-126990323D01*
X155270841Y-127082247D01*
X155224879Y-127266095D01*
X155224879Y-127403980D01*
X155270841Y-127587828D01*
X155316803Y-127679752D01*
X155408727Y-127771676D01*
X155546612Y-127817638D01*
X155638536Y-127817638D01*
X155776422Y-127771676D01*
X155822384Y-127725714D01*
X155822384Y-127403980D01*
X155638536Y-127403980D01*
X156236041Y-127174171D02*
X156236041Y-127817638D01*
X156236041Y-127266095D02*
X156282003Y-127220133D01*
X156373927Y-127174171D01*
X156511812Y-127174171D01*
X156603736Y-127220133D01*
X156649698Y-127312057D01*
X156649698Y-127817638D01*
X157522974Y-127817638D02*
X157522974Y-126852438D01*
X157522974Y-127771676D02*
X157431051Y-127817638D01*
X157247203Y-127817638D01*
X157155279Y-127771676D01*
X157109317Y-127725714D01*
X157063355Y-127633790D01*
X157063355Y-127358019D01*
X157109317Y-127266095D01*
X157155279Y-127220133D01*
X157247203Y-127174171D01*
X157431051Y-127174171D01*
X157522974Y-127220133D01*
X152499660Y-126852438D02*
X152040041Y-126852438D01*
X151994079Y-127312057D01*
X152040041Y-127266095D01*
X152131965Y-127220133D01*
X152361774Y-127220133D01*
X152453698Y-127266095D01*
X152499660Y-127312057D01*
X152545622Y-127403980D01*
X152545622Y-127633790D01*
X152499660Y-127725714D01*
X152453698Y-127771676D01*
X152361774Y-127817638D01*
X152131965Y-127817638D01*
X152040041Y-127771676D01*
X151994079Y-127725714D01*
X152867355Y-127174171D02*
X153097165Y-127817638D01*
X153326974Y-127174171D01*
X149154117Y-126852438D02*
X149751622Y-126852438D01*
X149429889Y-127220133D01*
X149567774Y-127220133D01*
X149659698Y-127266095D01*
X149705660Y-127312057D01*
X149751622Y-127403980D01*
X149751622Y-127633790D01*
X149705660Y-127725714D01*
X149659698Y-127771676D01*
X149567774Y-127817638D01*
X149292003Y-127817638D01*
X149200079Y-127771676D01*
X149154117Y-127725714D01*
X150073355Y-127174171D02*
X150303165Y-127817638D01*
X150532974Y-127174171D01*
X146785184Y-131373638D02*
X146463451Y-130914019D01*
X146233641Y-131373638D02*
X146233641Y-130408438D01*
X146601336Y-130408438D01*
X146693260Y-130454400D01*
X146739222Y-130500361D01*
X146785184Y-130592285D01*
X146785184Y-130730171D01*
X146739222Y-130822095D01*
X146693260Y-130868057D01*
X146601336Y-130914019D01*
X146233641Y-130914019D01*
X147152879Y-131327676D02*
X147290765Y-131373638D01*
X147520574Y-131373638D01*
X147612498Y-131327676D01*
X147658460Y-131281714D01*
X147704422Y-131189790D01*
X147704422Y-131097866D01*
X147658460Y-131005942D01*
X147612498Y-130959980D01*
X147520574Y-130914019D01*
X147336727Y-130868057D01*
X147244803Y-130822095D01*
X147198841Y-130776133D01*
X147152879Y-130684209D01*
X147152879Y-130592285D01*
X147198841Y-130500361D01*
X147244803Y-130454400D01*
X147336727Y-130408438D01*
X147566536Y-130408438D01*
X147704422Y-130454400D01*
X147980193Y-130408438D02*
X148531736Y-130408438D01*
X148255965Y-131373638D02*
X148255965Y-130408438D01*
%TO.C,DRIVER1*%
D18*
X159695847Y-118557115D02*
X158489347Y-118557115D01*
X158489347Y-118269853D01*
X158546800Y-118097496D01*
X158661704Y-117982591D01*
X158776609Y-117925139D01*
X159006419Y-117867687D01*
X159178776Y-117867687D01*
X159408585Y-117925139D01*
X159523490Y-117982591D01*
X159638395Y-118097496D01*
X159695847Y-118269853D01*
X159695847Y-118557115D01*
X159695847Y-116661187D02*
X159121323Y-117063353D01*
X159695847Y-117350615D02*
X158489347Y-117350615D01*
X158489347Y-116890996D01*
X158546800Y-116776091D01*
X158604252Y-116718639D01*
X158719157Y-116661187D01*
X158891514Y-116661187D01*
X159006419Y-116718639D01*
X159063871Y-116776091D01*
X159121323Y-116890996D01*
X159121323Y-117350615D01*
X159695847Y-116144115D02*
X158489347Y-116144115D01*
X158489347Y-115741948D02*
X159695847Y-115339782D01*
X158489347Y-114937615D01*
X159063871Y-114535448D02*
X159063871Y-114133282D01*
X159695847Y-113960925D02*
X159695847Y-114535448D01*
X158489347Y-114535448D01*
X158489347Y-113960925D01*
X159695847Y-112754425D02*
X159121323Y-113156591D01*
X159695847Y-113443853D02*
X158489347Y-113443853D01*
X158489347Y-112984234D01*
X158546800Y-112869329D01*
X158604252Y-112811877D01*
X158719157Y-112754425D01*
X158891514Y-112754425D01*
X159006419Y-112811877D01*
X159063871Y-112869329D01*
X159121323Y-112984234D01*
X159121323Y-113443853D01*
X159695847Y-111605377D02*
X159695847Y-112294806D01*
X159695847Y-111950091D02*
X158489347Y-111950091D01*
X158661704Y-112064996D01*
X158776609Y-112179901D01*
X158834061Y-112294806D01*
%TO.C,VALVE1*%
X154587227Y-102545847D02*
X154989393Y-103752347D01*
X155391560Y-102545847D01*
X155736274Y-103407633D02*
X156310798Y-103407633D01*
X155621370Y-103752347D02*
X156023536Y-102545847D01*
X156425703Y-103752347D01*
X157402393Y-103752347D02*
X156827870Y-103752347D01*
X156827870Y-102545847D01*
X157632203Y-102545847D02*
X158034370Y-103752347D01*
X158436536Y-102545847D01*
X158838703Y-103120371D02*
X159240870Y-103120371D01*
X159413227Y-103752347D02*
X158838703Y-103752347D01*
X158838703Y-102545847D01*
X159413227Y-102545847D01*
X160562274Y-103752347D02*
X159872846Y-103752347D01*
X160217560Y-103752347D02*
X160217560Y-102545847D01*
X160102655Y-102718204D01*
X159987751Y-102833109D01*
X159872846Y-102890561D01*
%TO.C,SOLENOID1*%
X154613232Y-96405095D02*
X154785589Y-96462547D01*
X155072851Y-96462547D01*
X155187755Y-96405095D01*
X155245208Y-96347642D01*
X155302660Y-96232738D01*
X155302660Y-96117833D01*
X155245208Y-96002928D01*
X155187755Y-95945476D01*
X155072851Y-95888023D01*
X154843041Y-95830571D01*
X154728136Y-95773119D01*
X154670684Y-95715666D01*
X154613232Y-95600761D01*
X154613232Y-95485857D01*
X154670684Y-95370952D01*
X154728136Y-95313500D01*
X154843041Y-95256047D01*
X155130303Y-95256047D01*
X155302660Y-95313500D01*
X156049541Y-95256047D02*
X156279351Y-95256047D01*
X156394255Y-95313500D01*
X156509160Y-95428404D01*
X156566612Y-95658214D01*
X156566612Y-96060380D01*
X156509160Y-96290190D01*
X156394255Y-96405095D01*
X156279351Y-96462547D01*
X156049541Y-96462547D01*
X155934636Y-96405095D01*
X155819732Y-96290190D01*
X155762279Y-96060380D01*
X155762279Y-95658214D01*
X155819732Y-95428404D01*
X155934636Y-95313500D01*
X156049541Y-95256047D01*
X157658208Y-96462547D02*
X157083684Y-96462547D01*
X157083684Y-95256047D01*
X158060374Y-95830571D02*
X158462541Y-95830571D01*
X158634898Y-96462547D02*
X158060374Y-96462547D01*
X158060374Y-95256047D01*
X158634898Y-95256047D01*
X159151970Y-96462547D02*
X159151970Y-95256047D01*
X159841398Y-96462547D01*
X159841398Y-95256047D01*
X160645732Y-95256047D02*
X160875541Y-95256047D01*
X160990446Y-95313500D01*
X161105351Y-95428404D01*
X161162803Y-95658214D01*
X161162803Y-96060380D01*
X161105351Y-96290190D01*
X160990446Y-96405095D01*
X160875541Y-96462547D01*
X160645732Y-96462547D01*
X160530827Y-96405095D01*
X160415922Y-96290190D01*
X160358470Y-96060380D01*
X160358470Y-95658214D01*
X160415922Y-95428404D01*
X160530827Y-95313500D01*
X160645732Y-95256047D01*
X161679874Y-96462547D02*
X161679874Y-95256047D01*
X162254398Y-96462547D02*
X162254398Y-95256047D01*
X162541660Y-95256047D01*
X162714017Y-95313500D01*
X162828922Y-95428404D01*
X162886374Y-95543309D01*
X162943827Y-95773119D01*
X162943827Y-95945476D01*
X162886374Y-96175285D01*
X162828922Y-96290190D01*
X162714017Y-96405095D01*
X162541660Y-96462547D01*
X162254398Y-96462547D01*
X164092874Y-96462547D02*
X163403446Y-96462547D01*
X163748160Y-96462547D02*
X163748160Y-95256047D01*
X163633255Y-95428404D01*
X163518351Y-95543309D01*
X163403446Y-95600761D01*
%TO.C,SENSOR1*%
X166890095Y-112086767D02*
X166947547Y-111914410D01*
X166947547Y-111627148D01*
X166890095Y-111512244D01*
X166832642Y-111454791D01*
X166717738Y-111397339D01*
X166602833Y-111397339D01*
X166487928Y-111454791D01*
X166430476Y-111512244D01*
X166373023Y-111627148D01*
X166315571Y-111856958D01*
X166258119Y-111971863D01*
X166200666Y-112029315D01*
X166085761Y-112086767D01*
X165970857Y-112086767D01*
X165855952Y-112029315D01*
X165798500Y-111971863D01*
X165741047Y-111856958D01*
X165741047Y-111569696D01*
X165798500Y-111397339D01*
X166315571Y-110880267D02*
X166315571Y-110478101D01*
X166947547Y-110305744D02*
X166947547Y-110880267D01*
X165741047Y-110880267D01*
X165741047Y-110305744D01*
X166947547Y-109788672D02*
X165741047Y-109788672D01*
X166947547Y-109099244D01*
X165741047Y-109099244D01*
X166890095Y-108582172D02*
X166947547Y-108409815D01*
X166947547Y-108122553D01*
X166890095Y-108007648D01*
X166832642Y-107950196D01*
X166717738Y-107892744D01*
X166602833Y-107892744D01*
X166487928Y-107950196D01*
X166430476Y-108007648D01*
X166373023Y-108122553D01*
X166315571Y-108352363D01*
X166258119Y-108467267D01*
X166200666Y-108524720D01*
X166085761Y-108582172D01*
X165970857Y-108582172D01*
X165855952Y-108524720D01*
X165798500Y-108467267D01*
X165741047Y-108352363D01*
X165741047Y-108065101D01*
X165798500Y-107892744D01*
X165741047Y-107145863D02*
X165741047Y-106916053D01*
X165798500Y-106801148D01*
X165913404Y-106686244D01*
X166143214Y-106628791D01*
X166545380Y-106628791D01*
X166775190Y-106686244D01*
X166890095Y-106801148D01*
X166947547Y-106916053D01*
X166947547Y-107145863D01*
X166890095Y-107260767D01*
X166775190Y-107375672D01*
X166545380Y-107433125D01*
X166143214Y-107433125D01*
X165913404Y-107375672D01*
X165798500Y-107260767D01*
X165741047Y-107145863D01*
X166947547Y-105422291D02*
X166373023Y-105824458D01*
X166947547Y-106111720D02*
X165741047Y-106111720D01*
X165741047Y-105652101D01*
X165798500Y-105537196D01*
X165855952Y-105479744D01*
X165970857Y-105422291D01*
X166143214Y-105422291D01*
X166258119Y-105479744D01*
X166315571Y-105537196D01*
X166373023Y-105652101D01*
X166373023Y-106111720D01*
X166947547Y-104273244D02*
X166947547Y-104962672D01*
X166947547Y-104617958D02*
X165741047Y-104617958D01*
X165913404Y-104732863D01*
X166028309Y-104847767D01*
X166085761Y-104962672D01*
%TO.C,LED1*%
X173660208Y-107892547D02*
X173085684Y-107892547D01*
X173085684Y-106686047D01*
X174062374Y-107260571D02*
X174464541Y-107260571D01*
X174636898Y-107892547D02*
X174062374Y-107892547D01*
X174062374Y-106686047D01*
X174636898Y-106686047D01*
X175153970Y-107892547D02*
X175153970Y-106686047D01*
X175441232Y-106686047D01*
X175613589Y-106743500D01*
X175728493Y-106858404D01*
X175785946Y-106973309D01*
X175843398Y-107203119D01*
X175843398Y-107375476D01*
X175785946Y-107605285D01*
X175728493Y-107720190D01*
X175613589Y-107835095D01*
X175441232Y-107892547D01*
X175153970Y-107892547D01*
X176992446Y-107892547D02*
X176303017Y-107892547D01*
X176647732Y-107892547D02*
X176647732Y-106686047D01*
X176532827Y-106858404D01*
X176417922Y-106973309D01*
X176303017Y-107030761D01*
%TO.C,LED2*%
X173660208Y-112972547D02*
X173085684Y-112972547D01*
X173085684Y-111766047D01*
X174062374Y-112340571D02*
X174464541Y-112340571D01*
X174636898Y-112972547D02*
X174062374Y-112972547D01*
X174062374Y-111766047D01*
X174636898Y-111766047D01*
X175153970Y-112972547D02*
X175153970Y-111766047D01*
X175441232Y-111766047D01*
X175613589Y-111823500D01*
X175728493Y-111938404D01*
X175785946Y-112053309D01*
X175843398Y-112283119D01*
X175843398Y-112455476D01*
X175785946Y-112685285D01*
X175728493Y-112800190D01*
X175613589Y-112915095D01*
X175441232Y-112972547D01*
X175153970Y-112972547D01*
X176303017Y-111880952D02*
X176360470Y-111823500D01*
X176475374Y-111766047D01*
X176762636Y-111766047D01*
X176877541Y-111823500D01*
X176934993Y-111880952D01*
X176992446Y-111995857D01*
X176992446Y-112110761D01*
X176934993Y-112283119D01*
X176245565Y-112972547D01*
X176992446Y-112972547D01*
%TO.C,ENCODER1*%
X157121784Y-91614171D02*
X157523951Y-91614171D01*
X157696308Y-92246147D02*
X157121784Y-92246147D01*
X157121784Y-91039647D01*
X157696308Y-91039647D01*
X158213379Y-92246147D02*
X158213379Y-91039647D01*
X158902808Y-92246147D01*
X158902808Y-91039647D01*
X160166760Y-92131242D02*
X160109308Y-92188695D01*
X159936951Y-92246147D01*
X159822046Y-92246147D01*
X159649689Y-92188695D01*
X159534784Y-92073790D01*
X159477332Y-91958885D01*
X159419879Y-91729076D01*
X159419879Y-91556719D01*
X159477332Y-91326909D01*
X159534784Y-91212004D01*
X159649689Y-91097100D01*
X159822046Y-91039647D01*
X159936951Y-91039647D01*
X160109308Y-91097100D01*
X160166760Y-91154552D01*
X160913641Y-91039647D02*
X161143451Y-91039647D01*
X161258355Y-91097100D01*
X161373260Y-91212004D01*
X161430712Y-91441814D01*
X161430712Y-91843980D01*
X161373260Y-92073790D01*
X161258355Y-92188695D01*
X161143451Y-92246147D01*
X160913641Y-92246147D01*
X160798736Y-92188695D01*
X160683832Y-92073790D01*
X160626379Y-91843980D01*
X160626379Y-91441814D01*
X160683832Y-91212004D01*
X160798736Y-91097100D01*
X160913641Y-91039647D01*
X161947784Y-92246147D02*
X161947784Y-91039647D01*
X162235046Y-91039647D01*
X162407403Y-91097100D01*
X162522308Y-91212004D01*
X162579760Y-91326909D01*
X162637212Y-91556719D01*
X162637212Y-91729076D01*
X162579760Y-91958885D01*
X162522308Y-92073790D01*
X162407403Y-92188695D01*
X162235046Y-92246147D01*
X161947784Y-92246147D01*
X163154284Y-91614171D02*
X163556451Y-91614171D01*
X163728808Y-92246147D02*
X163154284Y-92246147D01*
X163154284Y-91039647D01*
X163728808Y-91039647D01*
X164935308Y-92246147D02*
X164533141Y-91671623D01*
X164245879Y-92246147D02*
X164245879Y-91039647D01*
X164705498Y-91039647D01*
X164820403Y-91097100D01*
X164877855Y-91154552D01*
X164935308Y-91269457D01*
X164935308Y-91441814D01*
X164877855Y-91556719D01*
X164820403Y-91614171D01*
X164705498Y-91671623D01*
X164245879Y-91671623D01*
X166084355Y-92246147D02*
X165394927Y-92246147D01*
X165739641Y-92246147D02*
X165739641Y-91039647D01*
X165624736Y-91212004D01*
X165509832Y-91326909D01*
X165394927Y-91384361D01*
%TO.C,JP19*%
X171525398Y-93986047D02*
X171525398Y-94847833D01*
X171467946Y-95020190D01*
X171353041Y-95135095D01*
X171180684Y-95192547D01*
X171065779Y-95192547D01*
X172099922Y-95192547D02*
X172099922Y-93986047D01*
X172559541Y-93986047D01*
X172674446Y-94043500D01*
X172731898Y-94100952D01*
X172789351Y-94215857D01*
X172789351Y-94388214D01*
X172731898Y-94503119D01*
X172674446Y-94560571D01*
X172559541Y-94618023D01*
X172099922Y-94618023D01*
X173938398Y-95192547D02*
X173248970Y-95192547D01*
X173593684Y-95192547D02*
X173593684Y-93986047D01*
X173478779Y-94158404D01*
X173363874Y-94273309D01*
X173248970Y-94330761D01*
X174512922Y-95192547D02*
X174742732Y-95192547D01*
X174857636Y-95135095D01*
X174915089Y-95077642D01*
X175029993Y-94905285D01*
X175087446Y-94675476D01*
X175087446Y-94215857D01*
X175029993Y-94100952D01*
X174972541Y-94043500D01*
X174857636Y-93986047D01*
X174627827Y-93986047D01*
X174512922Y-94043500D01*
X174455470Y-94100952D01*
X174398017Y-94215857D01*
X174398017Y-94503119D01*
X174455470Y-94618023D01*
X174512922Y-94675476D01*
X174627827Y-94732928D01*
X174857636Y-94732928D01*
X174972541Y-94675476D01*
X175029993Y-94618023D01*
X175087446Y-94503119D01*
%TO.C,R1*%
X167123457Y-116099145D02*
X166441848Y-115934146D01*
X166606309Y-116555072D02*
X165808437Y-115650063D01*
X166153202Y-115346112D01*
X166277387Y-115313220D01*
X166358477Y-115318321D01*
X166477560Y-115366519D01*
X166591542Y-115495806D01*
X166624435Y-115619991D01*
X166619333Y-115701081D01*
X166571135Y-115820164D01*
X166226370Y-116124116D01*
X167985371Y-115339266D02*
X167468223Y-115795194D01*
X167726797Y-115567230D02*
X166928924Y-114662221D01*
X166956715Y-114867496D01*
X166946511Y-115029675D01*
X166898314Y-115148759D01*
%TO.C,R2*%
X173468267Y-121173903D02*
X172785523Y-121013667D01*
X172954315Y-121633430D02*
X172150143Y-120734013D01*
X172492778Y-120427662D01*
X172616731Y-120393903D01*
X172697854Y-120398439D01*
X172817271Y-120445804D01*
X172932153Y-120574292D01*
X172965911Y-120698244D01*
X172961376Y-120779368D01*
X172914011Y-120898785D01*
X172571376Y-121205136D01*
X173083318Y-120053794D02*
X173087854Y-119972671D01*
X173135219Y-119853254D01*
X173349366Y-119661784D01*
X173473318Y-119628026D01*
X173554441Y-119632561D01*
X173673859Y-119679926D01*
X173750446Y-119765585D01*
X173822499Y-119932367D01*
X173768073Y-120905846D01*
X174324854Y-120408026D01*
%TO.C,J2*%
D10*
X176196666Y-97242380D02*
X176196666Y-97956666D01*
X176149047Y-98099523D01*
X176053809Y-98194761D01*
X175910952Y-98242380D01*
X175815714Y-98242380D01*
X176625238Y-97337619D02*
X176672857Y-97290000D01*
X176768095Y-97242380D01*
X177006190Y-97242380D01*
X177101428Y-97290000D01*
X177149047Y-97337619D01*
X177196666Y-97432857D01*
X177196666Y-97528095D01*
X177149047Y-97670952D01*
X176577619Y-98242380D01*
X177196666Y-98242380D01*
%TO.C,J4*%
X119681666Y-86447380D02*
X119681666Y-87161666D01*
X119634047Y-87304523D01*
X119538809Y-87399761D01*
X119395952Y-87447380D01*
X119300714Y-87447380D01*
X120586428Y-86780714D02*
X120586428Y-87447380D01*
X120348333Y-86399761D02*
X120110238Y-87114047D01*
X120729285Y-87114047D01*
%TO.C,J5*%
X118411666Y-98512380D02*
X118411666Y-99226666D01*
X118364047Y-99369523D01*
X118268809Y-99464761D01*
X118125952Y-99512380D01*
X118030714Y-99512380D01*
X119364047Y-98512380D02*
X118887857Y-98512380D01*
X118840238Y-98988571D01*
X118887857Y-98940952D01*
X118983095Y-98893333D01*
X119221190Y-98893333D01*
X119316428Y-98940952D01*
X119364047Y-98988571D01*
X119411666Y-99083809D01*
X119411666Y-99321904D01*
X119364047Y-99417142D01*
X119316428Y-99464761D01*
X119221190Y-99512380D01*
X118983095Y-99512380D01*
X118887857Y-99464761D01*
X118840238Y-99417142D01*
%TO.C,J6*%
X118411666Y-103592380D02*
X118411666Y-104306666D01*
X118364047Y-104449523D01*
X118268809Y-104544761D01*
X118125952Y-104592380D01*
X118030714Y-104592380D01*
X119316428Y-103592380D02*
X119125952Y-103592380D01*
X119030714Y-103640000D01*
X118983095Y-103687619D01*
X118887857Y-103830476D01*
X118840238Y-104020952D01*
X118840238Y-104401904D01*
X118887857Y-104497142D01*
X118935476Y-104544761D01*
X119030714Y-104592380D01*
X119221190Y-104592380D01*
X119316428Y-104544761D01*
X119364047Y-104497142D01*
X119411666Y-104401904D01*
X119411666Y-104163809D01*
X119364047Y-104068571D01*
X119316428Y-104020952D01*
X119221190Y-103973333D01*
X119030714Y-103973333D01*
X118935476Y-104020952D01*
X118887857Y-104068571D01*
X118840238Y-104163809D01*
%TO.C,J3*%
X118411666Y-92797380D02*
X118411666Y-93511666D01*
X118364047Y-93654523D01*
X118268809Y-93749761D01*
X118125952Y-93797380D01*
X118030714Y-93797380D01*
X118792619Y-92797380D02*
X119411666Y-92797380D01*
X119078333Y-93178333D01*
X119221190Y-93178333D01*
X119316428Y-93225952D01*
X119364047Y-93273571D01*
X119411666Y-93368809D01*
X119411666Y-93606904D01*
X119364047Y-93702142D01*
X119316428Y-93749761D01*
X119221190Y-93797380D01*
X118935476Y-93797380D01*
X118840238Y-93749761D01*
X118792619Y-93702142D01*
%TO.C,J7*%
D18*
X115823198Y-93300247D02*
X115823198Y-94162033D01*
X115765746Y-94334390D01*
X115650841Y-94449295D01*
X115478484Y-94506747D01*
X115363579Y-94506747D01*
X116282817Y-93300247D02*
X117087151Y-93300247D01*
X116570079Y-94506747D01*
%TO.C,J8*%
X115823198Y-87585247D02*
X115823198Y-88447033D01*
X115765746Y-88619390D01*
X115650841Y-88734295D01*
X115478484Y-88791747D01*
X115363579Y-88791747D01*
X116570079Y-88102319D02*
X116455174Y-88044866D01*
X116397722Y-87987414D01*
X116340270Y-87872509D01*
X116340270Y-87815057D01*
X116397722Y-87700152D01*
X116455174Y-87642700D01*
X116570079Y-87585247D01*
X116799889Y-87585247D01*
X116914793Y-87642700D01*
X116972246Y-87700152D01*
X117029698Y-87815057D01*
X117029698Y-87872509D01*
X116972246Y-87987414D01*
X116914793Y-88044866D01*
X116799889Y-88102319D01*
X116570079Y-88102319D01*
X116455174Y-88159771D01*
X116397722Y-88217223D01*
X116340270Y-88332128D01*
X116340270Y-88561938D01*
X116397722Y-88676842D01*
X116455174Y-88734295D01*
X116570079Y-88791747D01*
X116799889Y-88791747D01*
X116914793Y-88734295D01*
X116972246Y-88676842D01*
X117029698Y-88561938D01*
X117029698Y-88332128D01*
X116972246Y-88217223D01*
X116914793Y-88159771D01*
X116799889Y-88102319D01*
%TO.C,J9*%
X115823198Y-99015247D02*
X115823198Y-99877033D01*
X115765746Y-100049390D01*
X115650841Y-100164295D01*
X115478484Y-100221747D01*
X115363579Y-100221747D01*
X116455174Y-100221747D02*
X116684984Y-100221747D01*
X116799889Y-100164295D01*
X116857341Y-100106842D01*
X116972246Y-99934485D01*
X117029698Y-99704676D01*
X117029698Y-99245057D01*
X116972246Y-99130152D01*
X116914793Y-99072700D01*
X116799889Y-99015247D01*
X116570079Y-99015247D01*
X116455174Y-99072700D01*
X116397722Y-99130152D01*
X116340270Y-99245057D01*
X116340270Y-99532319D01*
X116397722Y-99647223D01*
X116455174Y-99704676D01*
X116570079Y-99762128D01*
X116799889Y-99762128D01*
X116914793Y-99704676D01*
X116972246Y-99647223D01*
X117029698Y-99532319D01*
%TO.C,J10*%
X115823198Y-104730247D02*
X115823198Y-105592033D01*
X115765746Y-105764390D01*
X115650841Y-105879295D01*
X115478484Y-105936747D01*
X115363579Y-105936747D01*
X117029698Y-105936747D02*
X116340270Y-105936747D01*
X116684984Y-105936747D02*
X116684984Y-104730247D01*
X116570079Y-104902604D01*
X116455174Y-105017509D01*
X116340270Y-105074961D01*
X117776579Y-104730247D02*
X117891484Y-104730247D01*
X118006389Y-104787700D01*
X118063841Y-104845152D01*
X118121293Y-104960057D01*
X118178746Y-105189866D01*
X118178746Y-105477128D01*
X118121293Y-105706938D01*
X118063841Y-105821842D01*
X118006389Y-105879295D01*
X117891484Y-105936747D01*
X117776579Y-105936747D01*
X117661674Y-105879295D01*
X117604222Y-105821842D01*
X117546770Y-105706938D01*
X117489317Y-105477128D01*
X117489317Y-105189866D01*
X117546770Y-104960057D01*
X117604222Y-104845152D01*
X117661674Y-104787700D01*
X117776579Y-104730247D01*
%TO.C,D1*%
D10*
X147177380Y-109323095D02*
X146177380Y-109323095D01*
X146177380Y-109085000D01*
X146225000Y-108942142D01*
X146320238Y-108846904D01*
X146415476Y-108799285D01*
X146605952Y-108751666D01*
X146748809Y-108751666D01*
X146939285Y-108799285D01*
X147034523Y-108846904D01*
X147129761Y-108942142D01*
X147177380Y-109085000D01*
X147177380Y-109323095D01*
X147177380Y-107799285D02*
X147177380Y-108370714D01*
X147177380Y-108085000D02*
X146177380Y-108085000D01*
X146320238Y-108180238D01*
X146415476Y-108275476D01*
X146463095Y-108370714D01*
%TO.C,D2*%
X147177380Y-102338095D02*
X146177380Y-102338095D01*
X146177380Y-102100000D01*
X146225000Y-101957142D01*
X146320238Y-101861904D01*
X146415476Y-101814285D01*
X146605952Y-101766666D01*
X146748809Y-101766666D01*
X146939285Y-101814285D01*
X147034523Y-101861904D01*
X147129761Y-101957142D01*
X147177380Y-102100000D01*
X147177380Y-102338095D01*
X146272619Y-101385714D02*
X146225000Y-101338095D01*
X146177380Y-101242857D01*
X146177380Y-101004761D01*
X146225000Y-100909523D01*
X146272619Y-100861904D01*
X146367857Y-100814285D01*
X146463095Y-100814285D01*
X146605952Y-100861904D01*
X147177380Y-101433333D01*
X147177380Y-100814285D01*
%TO.C,Q1*%
X141407619Y-100485238D02*
X141360000Y-100580476D01*
X141264761Y-100675714D01*
X141121904Y-100818571D01*
X141074285Y-100913809D01*
X141074285Y-101009047D01*
X141312380Y-100961428D02*
X141264761Y-101056666D01*
X141169523Y-101151904D01*
X140979047Y-101199523D01*
X140645714Y-101199523D01*
X140455238Y-101151904D01*
X140360000Y-101056666D01*
X140312380Y-100961428D01*
X140312380Y-100770952D01*
X140360000Y-100675714D01*
X140455238Y-100580476D01*
X140645714Y-100532857D01*
X140979047Y-100532857D01*
X141169523Y-100580476D01*
X141264761Y-100675714D01*
X141312380Y-100770952D01*
X141312380Y-100961428D01*
X141312380Y-99580476D02*
X141312380Y-100151904D01*
X141312380Y-99866190D02*
X140312380Y-99866190D01*
X140455238Y-99961428D01*
X140550476Y-100056666D01*
X140598095Y-100151904D01*
%TO.C,Q2*%
X141422619Y-106775238D02*
X141375000Y-106870476D01*
X141279761Y-106965714D01*
X141136904Y-107108571D01*
X141089285Y-107203809D01*
X141089285Y-107299047D01*
X141327380Y-107251428D02*
X141279761Y-107346666D01*
X141184523Y-107441904D01*
X140994047Y-107489523D01*
X140660714Y-107489523D01*
X140470238Y-107441904D01*
X140375000Y-107346666D01*
X140327380Y-107251428D01*
X140327380Y-107060952D01*
X140375000Y-106965714D01*
X140470238Y-106870476D01*
X140660714Y-106822857D01*
X140994047Y-106822857D01*
X141184523Y-106870476D01*
X141279761Y-106965714D01*
X141327380Y-107060952D01*
X141327380Y-107251428D01*
X140422619Y-106441904D02*
X140375000Y-106394285D01*
X140327380Y-106299047D01*
X140327380Y-106060952D01*
X140375000Y-105965714D01*
X140422619Y-105918095D01*
X140517857Y-105870476D01*
X140613095Y-105870476D01*
X140755952Y-105918095D01*
X141327380Y-106489523D01*
X141327380Y-105870476D01*
%TO.C,J11*%
X117935476Y-124122380D02*
X117935476Y-124836666D01*
X117887857Y-124979523D01*
X117792619Y-125074761D01*
X117649761Y-125122380D01*
X117554523Y-125122380D01*
X118935476Y-125122380D02*
X118364047Y-125122380D01*
X118649761Y-125122380D02*
X118649761Y-124122380D01*
X118554523Y-124265238D01*
X118459285Y-124360476D01*
X118364047Y-124408095D01*
X119887857Y-125122380D02*
X119316428Y-125122380D01*
X119602142Y-125122380D02*
X119602142Y-124122380D01*
X119506904Y-124265238D01*
X119411666Y-124360476D01*
X119316428Y-124408095D01*
%TO.C,J1*%
X179371666Y-117137380D02*
X179371666Y-117851666D01*
X179324047Y-117994523D01*
X179228809Y-118089761D01*
X179085952Y-118137380D01*
X178990714Y-118137380D01*
X180371666Y-118137380D02*
X179800238Y-118137380D01*
X180085952Y-118137380D02*
X180085952Y-117137380D01*
X179990714Y-117280238D01*
X179895476Y-117375476D01*
X179800238Y-117423095D01*
%TO.C,R3*%
X152472380Y-104904166D02*
X151996190Y-105237500D01*
X152472380Y-105475595D02*
X151472380Y-105475595D01*
X151472380Y-105094642D01*
X151520000Y-104999404D01*
X151567619Y-104951785D01*
X151662857Y-104904166D01*
X151805714Y-104904166D01*
X151900952Y-104951785D01*
X151948571Y-104999404D01*
X151996190Y-105094642D01*
X151996190Y-105475595D01*
X151472380Y-104570833D02*
X151472380Y-103951785D01*
X151853333Y-104285119D01*
X151853333Y-104142261D01*
X151900952Y-104047023D01*
X151948571Y-103999404D01*
X152043809Y-103951785D01*
X152281904Y-103951785D01*
X152377142Y-103999404D01*
X152424761Y-104047023D01*
X152472380Y-104142261D01*
X152472380Y-104427976D01*
X152424761Y-104523214D01*
X152377142Y-104570833D01*
%TO.C,R4*%
X152472380Y-109349166D02*
X151996190Y-109682500D01*
X152472380Y-109920595D02*
X151472380Y-109920595D01*
X151472380Y-109539642D01*
X151520000Y-109444404D01*
X151567619Y-109396785D01*
X151662857Y-109349166D01*
X151805714Y-109349166D01*
X151900952Y-109396785D01*
X151948571Y-109444404D01*
X151996190Y-109539642D01*
X151996190Y-109920595D01*
X151805714Y-108492023D02*
X152472380Y-108492023D01*
X151424761Y-108730119D02*
X152139047Y-108968214D01*
X152139047Y-108349166D01*
%TO.C,R5*%
X152472380Y-100459166D02*
X151996190Y-100792500D01*
X152472380Y-101030595D02*
X151472380Y-101030595D01*
X151472380Y-100649642D01*
X151520000Y-100554404D01*
X151567619Y-100506785D01*
X151662857Y-100459166D01*
X151805714Y-100459166D01*
X151900952Y-100506785D01*
X151948571Y-100554404D01*
X151996190Y-100649642D01*
X151996190Y-101030595D01*
X151472380Y-99554404D02*
X151472380Y-100030595D01*
X151948571Y-100078214D01*
X151900952Y-100030595D01*
X151853333Y-99935357D01*
X151853333Y-99697261D01*
X151900952Y-99602023D01*
X151948571Y-99554404D01*
X152043809Y-99506785D01*
X152281904Y-99506785D01*
X152377142Y-99554404D01*
X152424761Y-99602023D01*
X152472380Y-99697261D01*
X152472380Y-99935357D01*
X152424761Y-100030595D01*
X152377142Y-100078214D01*
%TO.C,R6*%
X152472380Y-96051666D02*
X151996190Y-96385000D01*
X152472380Y-96623095D02*
X151472380Y-96623095D01*
X151472380Y-96242142D01*
X151520000Y-96146904D01*
X151567619Y-96099285D01*
X151662857Y-96051666D01*
X151805714Y-96051666D01*
X151900952Y-96099285D01*
X151948571Y-96146904D01*
X151996190Y-96242142D01*
X151996190Y-96623095D01*
X151472380Y-95194523D02*
X151472380Y-95385000D01*
X151520000Y-95480238D01*
X151567619Y-95527857D01*
X151710476Y-95623095D01*
X151900952Y-95670714D01*
X152281904Y-95670714D01*
X152377142Y-95623095D01*
X152424761Y-95575476D01*
X152472380Y-95480238D01*
X152472380Y-95289761D01*
X152424761Y-95194523D01*
X152377142Y-95146904D01*
X152281904Y-95099285D01*
X152043809Y-95099285D01*
X151948571Y-95146904D01*
X151900952Y-95194523D01*
X151853333Y-95289761D01*
X151853333Y-95480238D01*
X151900952Y-95575476D01*
X151948571Y-95623095D01*
X152043809Y-95670714D01*
%TO.C,R7*%
X123262380Y-127731665D02*
X122786190Y-128064999D01*
X123262380Y-128303094D02*
X122262380Y-128303094D01*
X122262380Y-127922141D01*
X122310000Y-127826903D01*
X122357619Y-127779284D01*
X122452857Y-127731665D01*
X122595714Y-127731665D01*
X122690952Y-127779284D01*
X122738571Y-127826903D01*
X122786190Y-127922141D01*
X122786190Y-128303094D01*
X122262380Y-127398332D02*
X122262380Y-126731665D01*
X123262380Y-127160237D01*
%TO.C,R8*%
X126437380Y-127731665D02*
X125961190Y-128064999D01*
X126437380Y-128303094D02*
X125437380Y-128303094D01*
X125437380Y-127922141D01*
X125485000Y-127826903D01*
X125532619Y-127779284D01*
X125627857Y-127731665D01*
X125770714Y-127731665D01*
X125865952Y-127779284D01*
X125913571Y-127826903D01*
X125961190Y-127922141D01*
X125961190Y-128303094D01*
X125865952Y-127160237D02*
X125818333Y-127255475D01*
X125770714Y-127303094D01*
X125675476Y-127350713D01*
X125627857Y-127350713D01*
X125532619Y-127303094D01*
X125485000Y-127255475D01*
X125437380Y-127160237D01*
X125437380Y-126969760D01*
X125485000Y-126874522D01*
X125532619Y-126826903D01*
X125627857Y-126779284D01*
X125675476Y-126779284D01*
X125770714Y-126826903D01*
X125818333Y-126874522D01*
X125865952Y-126969760D01*
X125865952Y-127160237D01*
X125913571Y-127255475D01*
X125961190Y-127303094D01*
X126056428Y-127350713D01*
X126246904Y-127350713D01*
X126342142Y-127303094D01*
X126389761Y-127255475D01*
X126437380Y-127160237D01*
X126437380Y-126969760D01*
X126389761Y-126874522D01*
X126342142Y-126826903D01*
X126246904Y-126779284D01*
X126056428Y-126779284D01*
X125961190Y-126826903D01*
X125913571Y-126874522D01*
X125865952Y-126969760D01*
%TD*%
M02*
