M48
; DRILL file {KiCad (5.1.10)-1} date 04/28/23 17:41:48
; FORMAT={-:-/ absolute / inch / decimal}
; #@! TF.CreationDate,2023-04-28T17:41:48-04:00
; #@! TF.GenerationSoftware,Kicad,Pcbnew,(5.1.10)-1
; #@! TF.FileFunction,Plated,1,2,PTH
FMAT,2
INCH
T1C0.0157
T2C0.0236
T3C0.0256
T4C0.0320
T5C0.0354
T6C0.0394
T7C0.0400
%
G90
G05
T1
X4.6037Y-4.7962
X4.95Y-4.925
X5.075Y-4.85
X5.6506Y-4.3244
X5.8Y-3.775
X5.8Y-3.9
X5.975Y-3.875
X5.975Y-4.175
X6.05Y-4.375
X6.1Y-3.8
X6.2Y-3.65
X6.456Y-3.469
T2
X4.5765Y-4.85
X4.8715Y-4.85
X5.525Y-3.85
X5.6465Y-4.379
X5.7315Y-4.6
X5.75Y-3.875
X6.0Y-4.6
X6.1665Y-4.169
X6.1665Y-4.394
X6.55Y-3.85
X6.6Y-4.009
X6.65Y-3.8
T3
X7.075Y-4.7
X7.075Y-4.75
X7.075Y-4.8
X7.075Y-4.85
T4
X6.5373Y-4.7365
X6.6365Y-4.8258
X6.7357Y-4.5115
X6.8365Y-4.6022
X7.0Y-4.25
X7.0Y-4.45
X7.1Y-4.25
X7.1Y-4.45
T5
X4.6765Y-3.319
X4.7765Y-3.319
X4.8765Y-3.319
T6
X4.625Y-5.0
X4.625Y-5.1
X4.725Y-5.0
X4.725Y-5.1
X5.2365Y-3.184
X5.3365Y-3.184
X5.4365Y-3.184
X5.5365Y-3.184
X5.5965Y-5.084
X5.6365Y-3.184
X5.6965Y-5.084
X5.7365Y-3.184
X5.7965Y-5.084
X5.8365Y-3.184
X5.8965Y-5.084
X5.9365Y-3.184
X5.9965Y-5.084
X6.0365Y-3.184
X6.0965Y-5.084
X6.1365Y-3.184
X6.1965Y-5.084
X6.2965Y-3.184
X6.2965Y-5.084
X6.3965Y-3.184
X6.4965Y-3.184
X6.4965Y-5.084
X6.5965Y-3.184
X6.5965Y-5.084
X6.6965Y-3.184
X6.6965Y-5.084
X6.7965Y-3.184
X6.7965Y-5.084
X6.8Y-3.95
X6.8Y-4.05
X6.8965Y-3.184
X6.8965Y-5.084
X6.9Y-3.95
X6.9Y-4.05
X6.9965Y-3.184
X6.9965Y-5.084
X7.0Y-3.95
X7.0Y-4.05
X7.1Y-3.95
X7.1Y-4.05
T7
X4.6Y-3.55
X4.6Y-3.775
X4.6Y-4.0
X4.6Y-4.225
X4.625Y-4.4
X4.625Y-4.5
X4.625Y-4.6
X4.625Y-4.7
X4.725Y-4.4
X4.725Y-4.5
X4.725Y-4.6
X4.725Y-4.7
X4.75Y-3.55
X4.75Y-3.775
X4.75Y-4.0
X4.75Y-4.225
X4.825Y-4.4
X4.825Y-4.5
X4.825Y-4.6
X4.825Y-4.7
X4.925Y-4.4
X4.925Y-4.5
X4.925Y-4.6
X4.925Y-4.7
X4.95Y-3.55
X4.95Y-3.775
X4.95Y-4.0
X4.95Y-4.225
X5.025Y-4.4
X5.025Y-4.5
X5.025Y-4.6
X5.025Y-4.7
X5.125Y-4.4
X5.125Y-4.5
X5.125Y-4.6
X5.125Y-4.7
X5.144Y-4.92
X5.144Y-5.098
X5.225Y-4.4
X5.225Y-4.5
X5.225Y-4.6
X5.225Y-4.7
X5.325Y-4.4
X5.325Y-4.5
X5.325Y-4.6
X5.325Y-4.7
X5.35Y-3.55
X5.35Y-3.775
X5.35Y-4.0
X5.35Y-4.225
X5.4Y-4.92
X5.4Y-5.098
X5.425Y-4.4
X5.425Y-4.5
X5.425Y-4.6
X5.425Y-4.7
X5.4365Y-3.344
X5.45Y-3.55
X5.45Y-3.775
X5.45Y-4.0
X5.45Y-4.225
X5.525Y-4.4
X5.525Y-4.5
X5.525Y-4.6
X5.525Y-4.7
X5.5365Y-3.344
X5.6365Y-3.344
X5.7215Y-3.609
X5.7365Y-3.344
X5.8215Y-3.609
X5.8365Y-3.344
X5.8965Y-4.889
X5.9215Y-3.609
X5.9365Y-3.344
X5.9965Y-4.889
X6.0215Y-3.609
X6.0365Y-3.344
X6.1215Y-3.609
X6.1365Y-3.344
X6.1965Y-4.899
X6.2Y-3.879
X6.2Y-3.979
X6.2965Y-3.339
X6.2965Y-4.899
X6.3615Y-3.879
X6.3615Y-3.979
X6.3615Y-4.079
X6.3615Y-4.179
X6.3615Y-4.279
X6.3615Y-4.379
X6.3615Y-4.479
X6.3615Y-4.579
X6.3615Y-4.679
X6.3965Y-3.339
X6.4365Y-4.939
X6.4965Y-3.339
X6.5365Y-4.939
X6.5965Y-3.339
X6.6365Y-4.939
X6.6465Y-4.179
X6.6465Y-4.279
X6.6465Y-4.379
X6.6965Y-3.339
X6.7215Y-3.549
X6.7215Y-3.649
X6.7365Y-4.939
X6.7965Y-3.339
X6.8215Y-3.549
X6.8215Y-3.649
X6.8365Y-4.939
X6.8965Y-3.339
X6.9215Y-3.549
X6.9215Y-3.649
X6.9365Y-4.939
X6.9965Y-3.339
T0
M30
