%TF.GenerationSoftware,KiCad,Pcbnew,(5.1.10)-1*%
%TF.CreationDate,2023-04-24T18:22:13-04:00*%
%TF.ProjectId,Arduino_shield,41726475-696e-46f5-9f73-6869656c642e,rev?*%
%TF.SameCoordinates,Original*%
%TF.FileFunction,Soldermask,Bot*%
%TF.FilePolarity,Negative*%
%FSLAX46Y46*%
G04 Gerber Fmt 4.6, Leading zero omitted, Abs format (unit mm)*
G04 Created by KiCad (PCBNEW (5.1.10)-1) date 2023-04-24 18:22:13*
%MOMM*%
%LPD*%
G01*
G04 APERTURE LIST*
%ADD10C,1.879600*%
%ADD11C,1.981200*%
%ADD12C,2.133600*%
%ADD13C,1.727200*%
%ADD14O,1.727200X3.251200*%
%ADD15C,1.524000*%
%ADD16O,3.251200X1.727200*%
%ADD17R,1.700000X1.700000*%
%ADD18O,1.700000X1.700000*%
%ADD19R,1.000000X1.000000*%
%ADD20O,1.000000X1.000000*%
G04 APERTURE END LIST*
D10*
%TO.C,U1*%
X142151100Y-129133600D03*
X144691100Y-129133600D03*
X133007100Y-80873600D03*
X135547100Y-80873600D03*
X147231100Y-129133600D03*
X149771100Y-129133600D03*
X152311100Y-129133600D03*
X154851100Y-129133600D03*
X157391100Y-129133600D03*
X159931100Y-129133600D03*
X177711100Y-129133600D03*
X175171100Y-129133600D03*
X172631100Y-129133600D03*
X170091100Y-129133600D03*
X167551100Y-129133600D03*
X138087100Y-80873600D03*
X140627100Y-80873600D03*
X143167100Y-80873600D03*
X145707100Y-80873600D03*
X148247100Y-80873600D03*
X150787100Y-80873600D03*
X153327100Y-80873600D03*
X155867100Y-80873600D03*
X159931100Y-80873600D03*
X162471100Y-80873600D03*
X165011100Y-80873600D03*
X177711100Y-80873600D03*
X175171100Y-80873600D03*
X172631100Y-80873600D03*
X170091100Y-80873600D03*
X165011100Y-129133600D03*
X167551100Y-80873600D03*
%TD*%
D11*
%TO.C,DRIVER1*%
X161582100Y-98526600D03*
X161582100Y-101066600D03*
X161582100Y-103606600D03*
X161582100Y-106146600D03*
X161582100Y-108686600D03*
X161582100Y-111226600D03*
X161582100Y-113766600D03*
X161582100Y-116306600D03*
X161582100Y-118846600D03*
%TD*%
D12*
%TO.C,VALVE1*%
X155994100Y-101066600D03*
%TD*%
%TO.C,SOLENOID1*%
X155994100Y-98526600D03*
%TD*%
D13*
%TO.C,SENSOR1*%
X168821100Y-111226600D03*
X168821100Y-108686600D03*
X168821100Y-106146600D03*
%TD*%
D10*
%TO.C,LED1*%
X180340000Y-107950000D03*
X177800000Y-107950000D03*
%TD*%
%TO.C,LED2*%
X180340000Y-113030000D03*
X177800000Y-113030000D03*
%TD*%
D14*
%TO.C,ENCODER1*%
X145326100Y-91668600D03*
X147866100Y-91668600D03*
X150406100Y-91668600D03*
X152946100Y-91668600D03*
X155486100Y-91668600D03*
%TD*%
%TO.C,JP7*%
X159931100Y-84810600D03*
X162471100Y-84810600D03*
X165011100Y-84810600D03*
X167551100Y-84810600D03*
X170091100Y-84810600D03*
X172631100Y-84810600D03*
X175171100Y-84810600D03*
X177711100Y-84810600D03*
%TD*%
%TO.C,JP9*%
X149771100Y-124180600D03*
X152311100Y-124180600D03*
%TD*%
%TO.C,JP10*%
X157391100Y-124434600D03*
X159931100Y-124434600D03*
%TD*%
%TO.C,JP8*%
X138087100Y-84937600D03*
X140627100Y-84937600D03*
X143167100Y-84937600D03*
X145707100Y-84937600D03*
X148247100Y-84937600D03*
X150787100Y-84937600D03*
X153327100Y-84937600D03*
X155867100Y-84937600D03*
%TD*%
%TO.C,JP11*%
X176187100Y-125450600D03*
X173647100Y-125450600D03*
X171107100Y-125450600D03*
X168567100Y-125450600D03*
X166027100Y-125450600D03*
X163487100Y-125450600D03*
%TD*%
D13*
%TO.C,JP17*%
X140335000Y-111760000D03*
X140335000Y-114300000D03*
X137795000Y-111760000D03*
X137795000Y-114300000D03*
X135255000Y-111760000D03*
X135255000Y-114300000D03*
X132715000Y-111760000D03*
X132715000Y-114300000D03*
X130175000Y-111760000D03*
X130175000Y-114300000D03*
X127635000Y-111760000D03*
X127635000Y-114300000D03*
X125095000Y-111760000D03*
X125095000Y-114300000D03*
X122555000Y-111760000D03*
X122555000Y-114300000D03*
X120015000Y-111760000D03*
X120015000Y-114300000D03*
X117475000Y-111760000D03*
X117475000Y-114300000D03*
%TD*%
%TO.C,JP19*%
X175806100Y-90144600D03*
X175806100Y-92684600D03*
X173266100Y-90144600D03*
X173266100Y-92684600D03*
X170726100Y-90144600D03*
X170726100Y-92684600D03*
%TD*%
D15*
%TO.C,R1*%
X166047502Y-120307523D03*
X171086698Y-114591677D03*
%TD*%
%TO.C,R2*%
X168567611Y-122575864D03*
X173646589Y-116895336D03*
%TD*%
D10*
%TO.C,S1*%
X118783100Y-84302600D03*
X123863100Y-84302600D03*
X121323100Y-84302600D03*
%TD*%
D16*
%TO.C,S2*%
X137160000Y-129489200D03*
X137160000Y-124968000D03*
X130657600Y-129489200D03*
X130657600Y-124968000D03*
%TD*%
D17*
%TO.C,J2*%
X180340000Y-102870000D03*
D18*
X180340000Y-100330000D03*
X177800000Y-102870000D03*
X177800000Y-100330000D03*
X175260000Y-102870000D03*
X175260000Y-100330000D03*
X172720000Y-102870000D03*
X172720000Y-100330000D03*
%TD*%
D12*
%TO.C,J4*%
X120650000Y-90170000D03*
X125730000Y-90170000D03*
X135890000Y-90170000D03*
X138430000Y-90170000D03*
%TD*%
%TO.C,J5*%
X138430000Y-101600000D03*
X135890000Y-101600000D03*
X125730000Y-101600000D03*
X120650000Y-101600000D03*
%TD*%
%TO.C,J6*%
X120650000Y-107315000D03*
X125730000Y-107315000D03*
X135890000Y-107315000D03*
X138430000Y-107315000D03*
%TD*%
D13*
%TO.C,JP16*%
X140335000Y-116840000D03*
X140335000Y-119380000D03*
X137795000Y-116840000D03*
X137795000Y-119380000D03*
X135255000Y-116840000D03*
X135255000Y-119380000D03*
X132715000Y-116840000D03*
X132715000Y-119380000D03*
X130175000Y-116840000D03*
X130175000Y-119380000D03*
X127635000Y-116840000D03*
X127635000Y-119380000D03*
X125095000Y-116840000D03*
X125095000Y-119380000D03*
X122555000Y-116840000D03*
X122555000Y-119380000D03*
X120015000Y-116840000D03*
X120015000Y-119380000D03*
X117475000Y-116840000D03*
X117475000Y-119380000D03*
%TD*%
D12*
%TO.C,J3*%
X138430000Y-95885000D03*
X135890000Y-95885000D03*
X125730000Y-95885000D03*
X120650000Y-95885000D03*
%TD*%
%TO.C,J7*%
X116840000Y-95885000D03*
%TD*%
%TO.C,J8*%
X116840000Y-90170000D03*
%TD*%
%TO.C,J9*%
X116840000Y-101600000D03*
%TD*%
%TO.C,J10*%
X116840000Y-107315000D03*
%TD*%
D17*
%TO.C,J11*%
X117475000Y-127000000D03*
D18*
X120015000Y-127000000D03*
X117475000Y-129540000D03*
X120015000Y-129540000D03*
%TD*%
D19*
%TO.C,J1*%
X179705000Y-119380000D03*
D20*
X179705000Y-120650000D03*
X179705000Y-121920000D03*
X179705000Y-123190000D03*
%TD*%
M02*
